<?xml version="1.0" encoding="UTF-8"?>
<svg version="1.1" xmlns="http://www.w3.org/2000/svg" width="1024" height="1024">
<path d="M0 0 C337.92 0 675.84 0 1024 0 C1024 337.92 1024 675.84 1024 1024 C686.08 1024 348.16 1024 0 1024 C0 686.08 0 348.16 0 0 Z " fill="#E1E0D8" transform="translate(0,0)"/>
<path d="M0 0 C0.66 0 1.32 0 2 0 C2.54527344 1.01578125 3.09054688 2.0315625 3.65234375 3.078125 C15.35863473 24.58076078 31.66211131 40.82207591 48.90722656 57.92236328 C50.55028352 59.55353625 52.18658444 61.19151485 53.8203125 62.83203125 C55.26517021 64.26912091 56.73140808 65.68505123 58.21875 67.078125 C65.4857267 73.99668501 71.34833741 81.73881607 77.32666016 89.76660156 C79.48397391 92.6459576 81.68248534 95.49230892 83.88183594 98.33959961 C94.36844686 111.93517108 104.28049238 125.93992931 114.1640625 139.9765625 C119.72295655 147.86891242 125.3164878 155.73377461 131.05224609 163.4987793 C139.94976044 175.54978349 148.31604113 187.93662481 156.58520508 200.42456055 C159.670473 205.06472742 162.84765593 209.61897524 166.125 214.125 C170.00734851 219.47975147 173.57115793 224.98013382 177.03515625 230.61328125 C180.46527584 236.18456245 184.03311902 241.65694042 187.625 247.125 C192.03477986 253.86168581 196.20484114 260.64737123 200.12890625 267.6796875 C202.08016469 271.14225468 204.12348852 274.54176441 206.1875 277.9375 C216.90403056 295.70413363 226.6874141 313.93578985 236.12719727 332.40419006 C238.3353172 336.7192573 240.57368308 341.0175704 242.828125 345.30859375 C282 419.96857452 282 419.96857452 282 436 C274.22897846 434.20668734 267.42122143 430.8475705 260.3828125 427.22265625 C256.72249626 425.34318988 253.01316409 423.60158758 249.27270508 421.88842773 C210.86374128 404.19179381 172.48410233 378.76833208 141.3359375 350.08984375 C139.0836185 348.07480919 136.76605766 346.22191331 134.375 344.375 C122.08909226 334.61024331 111.12234304 323.23136573 100.00698853 312.18222046 C98.72624994 310.90956225 97.44403833 309.63838444 96.1602478 308.36880493 C88.61295905 300.89621618 81.60062685 293.33016586 75 285 C74.00555263 283.83560477 73.00285831 282.67814808 71.98828125 281.53125 C63.6939257 272.14644983 56.27785126 262.18665024 49 252 C48.42975098 251.20634033 47.85950195 250.41268066 47.27197266 249.5949707 C36.53142155 234.48069003 27.45498237 218.26028447 18.9375 201.8125 C18.33099609 200.64485107 17.72449219 199.47720215 17.09960938 198.27416992 C4.31298102 173.26325522 -3.45039446 147.82577217 -7 120 C-7.17273438 118.8651416 -7.34546875 117.7302832 -7.5234375 116.56103516 C-8.26285344 110.58517067 -8.18240503 104.5832771 -8.203125 98.5703125 C-8.20882507 97.26714081 -8.21452515 95.96396912 -8.22039795 94.62130737 C-8.2308676 91.85935077 -8.23673274 89.09742282 -8.24023438 86.33544922 C-8.24456862 83.56057214 -8.25826734 80.78601487 -8.28125 78.01123047 C-8.46605887 55.21492812 -7.44696457 32.68122373 -2.3125 10.375 C-2.08755859 9.34761719 -1.86261719 8.32023437 -1.63085938 7.26171875 C-1.09862221 4.83834101 -0.55556582 2.41811258 0 0 Z " fill="#15131B" transform="translate(218,442)"/>
<path d="M0 0 C3.91692892 3.44549662 4.39814114 7.3075019 5.5 12.25 C5.71430664 13.19858887 5.92861328 14.14717773 6.14941406 15.12451172 C8.74785727 27.44850067 9.71628562 39.98617035 10.7175293 52.52197266 C10.8935773 54.68963032 11.08283483 56.85630589 11.29223633 59.02099609 C12.09529064 67.47201647 12.20022488 75.89421802 12.1875 84.375 C12.18689575 85.12155853 12.1862915 85.86811707 12.18566895 86.63729858 C12.03873624 153.78643884 -15.12904327 212.61718589 -56 265 C-56.80521322 266.06893809 -57.60850774 267.13932346 -58.41015625 268.2109375 C-63.21772814 274.60671677 -68.24712679 280.64312576 -73.6953125 286.515625 C-75.69128512 288.66721582 -77.63892978 290.84640528 -79.5625 293.0625 C-82.89121531 296.89013282 -86.27902779 300.66200025 -89.6796875 304.42578125 C-91.21205386 306.1258308 -92.73823801 307.83147568 -94.2578125 309.54296875 C-101.01628407 317.13741851 -107.9909898 324.37784116 -115.71484375 330.99609375 C-118.0641 333.05621077 -120.34912004 335.17328269 -122.63183594 337.30639648 C-153.64443578 366.25118933 -189.82400204 390.7536458 -227 411 C-228.15322754 411.6300293 -229.30645508 412.26005859 -230.49462891 412.90917969 C-257.29207349 427.5282841 -257.29207349 427.5282841 -270 433 C-271.33224609 433.60908203 -271.33224609 433.60908203 -272.69140625 434.23046875 C-275 435 -275 435 -278 434 C-271.30908387 413.23803236 -263.64815914 393.59480821 -254 374 C-253.06180956 372.05892731 -252.12427913 370.11753544 -251.1875 368.17578125 C-246.17472185 357.88296133 -240.75105139 347.88259567 -235.046875 337.95800781 C-230.8146134 330.55652915 -226.87630118 323.03051524 -223 315.4375 C-215.30863193 300.41566486 -206.90063047 285.84361528 -197.7265625 271.67578125 C-195.51161733 268.24311735 -193.34933974 264.77877744 -191.1875 261.3125 C-190.321633 259.92446768 -189.45574746 258.53644692 -188.58984375 257.1484375 C-188.15784668 256.45588867 -187.72584961 255.76333984 -187.28076172 255.04980469 C-186.06666744 253.10669841 -184.84863323 251.16613668 -183.62890625 249.2265625 C-182.83574677 247.96366143 -182.04278012 246.70063924 -181.25 245.4375 C-180.85022949 244.80102539 -180.45045898 244.16455078 -180.03857422 243.50878906 C-177.48642915 239.4281235 -174.98247353 235.32111803 -172.50390625 231.1953125 C-171.89321289 230.18154541 -171.28251953 229.16777832 -170.65332031 228.12329102 C-169.45884907 226.13720534 -168.26910488 224.14826613 -167.08496094 222.15600586 C-163.89185063 216.85121848 -160.49389006 211.93970159 -156.62719727 207.10620117 C-154.17598866 203.93342149 -152.12438554 200.55818946 -150.0625 197.125 C-146.64511284 191.5531731 -143.08263513 186.19098805 -139.17578125 180.9453125 C-136.49530426 177.31680325 -133.90446514 173.62950451 -131.3125 169.9375 C-127.05306147 163.87708626 -122.73280779 157.86497921 -118.375 151.875 C-114.03619654 145.90283977 -109.8601613 139.85468639 -105.80810547 133.68530273 C-100.95129252 126.33563826 -95.73066022 119.24963782 -90.54443359 112.13085938 C-88.69072452 109.57329175 -86.8631506 106.99799257 -85.03881836 104.41943359 C-70.00389991 83.18556709 -53.195598 63.98432074 -34.71533203 45.70019531 C-33.25226656 44.25004047 -31.79716487 42.79185824 -30.34375 41.33203125 C-28.74776568 39.74402685 -27.12942889 38.17824596 -25.4921875 36.6328125 C-14.37142165 25.97679507 -5.74151424 14.36589851 0 0 Z " fill="#14131A" transform="translate(803,442)"/>
<path d="M0 0 C1.12518539 0.00314209 1.12518539 0.00314209 2.27310181 0.00634766 C13.61542955 0.07168382 23.81295142 0.77161335 34.25 5.5 C34.88309082 5.77875977 35.51618164 6.05751953 36.16845703 6.34472656 C46.18027442 10.84817419 54.25297034 17.06108291 62.25 24.5 C63.20777344 25.36496094 64.16554688 26.22992188 65.15234375 27.12109375 C81.30813455 42.37052883 91.77502264 62.96312051 92.453125 85.3984375 C92.87231419 114.47371796 85.41454613 136.37475154 66.25 158.5 C65.74597656 159.09941406 65.24195313 159.69882812 64.72265625 160.31640625 C51.8051692 174.4829124 30.1697975 184.79122476 11.25 186.5 C7.02012017 186.66657133 2.79529006 186.68507988 -1.4375 186.6875 C-2.54544922 186.69974609 -3.65339844 186.71199219 -4.79492188 186.72460938 C-28.62488531 186.76639189 -50.11155006 177.84055887 -67.1015625 161.1875 C-87.4976159 140.49061985 -95.14606375 118.21887732 -95.1328125 89.45703125 C-94.95523346 65.41387351 -83.9139727 44.10800453 -67.5 26.75 C-58.99884372 18.75239653 -49.66043525 12.64054114 -39.1875 7.5625 C-38.44516113 7.19705078 -37.70282227 6.83160156 -36.93798828 6.45507812 C-25.03827726 0.93950923 -12.92135767 -0.08283265 0 0 Z " fill="#179AFB" transform="translate(384.75,255.5)"/>
<path d="M0 0 C0.68626465 0.29471191 1.3725293 0.58942383 2.07958984 0.89306641 C11.11682232 4.89642924 19.34628059 9.70492901 27 16 C27.97453125 16.79921875 28.9490625 17.5984375 29.953125 18.421875 C47.17450503 33.09849601 58.55632648 52.93652368 60.82348633 75.60571289 C61.65953485 86.94613868 61.99618489 98.97148967 59 110 C58.57460938 111.77117187 58.57460938 111.77117187 58.140625 113.578125 C53.66882177 130.77505958 43.5661432 144.72891818 31 157 C29.87851562 158.13501953 29.87851562 158.13501953 28.734375 159.29296875 C10.66016957 176.59734692 -13.77718627 181.79577402 -37.98046875 181.28515625 C-62.77169321 180.36324826 -86.75913901 168.21260867 -103.75 150.25 C-122.29213646 128.44172574 -128.00906727 103.23918022 -126 75 C-123.78085453 57.76539943 -115.6269415 42.44840292 -105 29 C-104.36449219 28.18015625 -103.72898437 27.3603125 -103.07421875 26.515625 C-79.29115153 -2.20739408 -34.6890133 -14.89910121 0 0 Z " fill="#199BFA" transform="translate(673,261)"/>
<path d="M0 0 C2.06601621 -0.00781123 4.13197263 -0.01988184 6.19796371 -0.03260422 C30.09015129 -0.15834245 54.10985628 0.84024713 77.54381943 5.87190628 C80.65981847 6.5039573 83.78772732 7.05404226 86.91833115 7.60921097 C102.86504292 10.48079892 118.26398092 14.12744356 133.66247177 19.26106644 C136.64037791 20.25238881 139.62395493 21.22422844 142.61089706 22.18793106 C145.7380582 23.1981793 148.8613956 24.22003852 151.9847374 25.24202347 C153.15552841 25.62334427 154.32631943 26.00466507 155.53258896 26.39754105 C156.60992294 26.75614212 157.68725693 27.11474319 158.7972374 27.48421097 C160.23003036 27.95769974 160.23003036 27.95769974 161.69176865 28.44075394 C163.9847374 29.36702347 163.9847374 29.36702347 165.9847374 31.36702347 C164.71243271 31.69573441 163.44012802 32.02444534 162.12926865 32.36311722 C132.49265972 40.26830049 104.77702068 54.41232926 79.09069443 71.01741409 C77.311739 72.15746343 75.50815406 73.25894301 73.69958115 74.35139847 C66.71465607 78.57250427 60.71046254 83.66591099 54.57360458 89.00471878 C52.13127701 91.09878575 49.61836891 93.1032453 47.1097374 95.11702347 C28.53311672 110.30139167 13.19633061 132.81627558 5.37145615 155.51546097 C4.68503036 156.92698441 4.68503036 156.92698441 3.9847374 158.36702347 C1.89806747 159.04524612 1.89806747 159.04524612 -0.0152626 159.36702347 C-0.34566544 158.53847855 -0.34566544 158.53847855 -0.68274307 157.69319534 C-7.40794472 140.99948143 -15.15318884 126.02003778 -27.0152626 112.36702347 C-27.73455948 111.53815628 -28.45385635 110.70928909 -29.1949501 109.85530472 C-31.43432975 107.32534813 -33.71109619 104.83804331 -36.0152626 102.36702347 C-36.70104385 101.62710159 -37.3868251 100.88717972 -38.0933876 100.12483597 C-62.98817474 74.21581677 -97.8908601 54.50752282 -130.9527626 41.30452347 C-131.64110184 41.02630753 -132.32944107 40.74809158 -133.03863907 40.46144485 C-142.583555 36.63178443 -151.85500995 34.04076689 -162.0152626 32.36702347 C-162.0152626 31.70702347 -162.0152626 31.04702347 -162.0152626 30.36702347 C-154.95393995 27.63705208 -147.81656204 25.38196668 -140.54748917 23.29182816 C-135.92851043 21.95502228 -131.37515774 20.49724422 -126.8277626 18.92952347 C-85.3306637 5.03946221 -43.56034667 0.14553417 0 0 Z " fill="#141219" transform="translate(510.01526260375977,145.63297653198242)"/>
<path d="M0 0 C3.32596215 9.97788646 -5.46709408 26.79673517 -9.83203125 35.8984375 C-20.32217044 56.47909154 -39.47367357 70.37558241 -61.03369141 77.68994141 C-64.31807083 78.65776038 -67.62745996 79.41434933 -71 80 C-69.66590054 84.26474417 -68.1573642 86.00998299 -64.4375 88.4375 C-63.54160156 89.03820312 -62.64570312 89.63890625 -61.72265625 90.2578125 C-60.03599758 91.33708046 -58.33739777 92.39821415 -56.62109375 93.4296875 C-50.28937965 97.32782105 -46.31125178 101.98302609 -42 108 C-41.59023926 108.56477051 -41.18047852 109.12954102 -40.75830078 109.71142578 C-14.30690382 146.34322691 0.58078757 188.70392697 -6.125 234.3125 C-12.51232491 273.51883035 -32.81639048 309.48049659 -65.25170898 332.99658203 C-67.15807029 334.34575615 -69.07603609 335.67609463 -71 337 C-71.94359375 337.66515625 -72.8871875 338.3303125 -73.859375 339.015625 C-98.30418219 355.46031348 -127.75821415 363.41380427 -157 363.375 C-157.66887238 363.37478851 -158.33774475 363.37457703 -159.02688599 363.37435913 C-171.33026618 363.33585118 -183.05793779 362.02907247 -195 359 C-195.72670898 358.81808105 -196.45341797 358.63616211 -197.20214844 358.44873047 C-210.93621318 354.87965977 -224.4474425 349.12924969 -235.83984375 340.609375 C-239.09470707 338.18441354 -242.53826324 336.1155058 -246 334 C-245.38334864 328.60607261 -244.12077204 323.71604717 -242.4375 318.5625 C-242.20353516 317.83095703 -241.96957031 317.09941406 -241.72851562 316.34570312 C-241.15732778 314.56219821 -240.57936877 312.78086417 -240 311 C-239.36835937 311.42410156 -238.73671875 311.84820312 -238.0859375 312.28515625 C-209.3236702 331.14226233 -174.61552218 338.50808729 -140.5 332.9375 C-125.16441371 329.4312869 -110.77892976 323.49680063 -97 316 C-95.90945313 315.42378906 -94.81890625 314.84757812 -93.6953125 314.25390625 C-87.34848494 310.7574987 -82.16564299 306.76734653 -76.9609375 301.72265625 C-75 300 -75 300 -73 300 C-73 299.34 -73 298.68 -73 298 C-72.34 298 -71.68 298 -71 298 C-70.74347656 297.42121094 -70.48695313 296.84242188 -70.22265625 296.24609375 C-68.8852204 293.7891429 -67.36261555 292.08873273 -65.4375 290.0625 C-46.27029124 268.81189898 -37.19431879 242.93883758 -37.47851562 214.54101562 C-37.49999719 212.00033233 -37.47855056 209.46247481 -37.453125 206.921875 C-37.39371604 171.8560031 -53.61443439 138.86481141 -77.6875 113.875 C-95.02119376 97.36434493 -116.94689334 90.89037604 -140 87 C-140.72316406 86.82509033 -141.44632813 86.65018066 -142.19140625 86.4699707 C-145.91984787 85.846079 -149.59580657 85.87681362 -153.36328125 85.90234375 C-154.55125557 85.90446617 -154.55125557 85.90446617 -155.76322937 85.90663147 C-158.27969219 85.91220543 -160.79606431 85.92475307 -163.3125 85.9375 C-165.02408725 85.94251837 -166.73567591 85.94708069 -168.44726562 85.95117188 C-172.63154508 85.96216632 -176.81575719 85.97941293 -181 86 C-179.38681471 82.77362943 -176.07729767 81.65442003 -173 80 C-171.85144531 79.37480469 -170.70289063 78.74960938 -169.51953125 78.10546875 C-155.2206197 70.61491852 -140.25615823 65.39409918 -124.48046875 62.01953125 C-119.93029107 61.02833837 -115.44522867 59.80590789 -110.94979858 58.59339905 C-106.53441272 57.40378377 -102.1098567 56.25921385 -97.67578125 55.140625 C-68.65975234 49.01534295 -68.65975234 49.01534295 -44 34 C-43.64496728 30.8582704 -43.64496728 30.8582704 -44 28 C-45.32 27.67 -46.64 27.34 -48 27 C-46.1371393 26.01748771 -44.27418921 25.03514469 -42.41088867 24.0534668 C-40.74004623 23.17293893 -39.06964688 22.29156984 -37.3996582 21.40942383 C-32.55753888 18.85596766 -27.70307605 16.33010829 -22.828125 13.83984375 C-21.805979 13.31487305 -20.78383301 12.78990234 -19.73071289 12.24902344 C-17.73822666 11.22664542 -15.74271726 10.21013279 -13.74389648 9.20019531 C-8.62120763 6.56344483 -4.24618023 3.90477881 0 0 Z " fill="#14131B" transform="translate(813,140)"/>
<path d="M0 0 C0.67804688 0.43570313 1.35609375 0.87140625 2.0546875 1.3203125 C3.45074219 2.21363281 3.45074219 2.21363281 4.875 3.125 C6.23238281 3.99511719 6.23238281 3.99511719 7.6171875 4.8828125 C8.73351562 5.58148438 9.84984375 6.28015625 11 7 C11.70680908 7.44923828 12.41361816 7.89847656 13.1418457 8.36132812 C19.97880385 12.60462172 27.10383785 15.95750419 34.4375 19.25 C36.74971109 20.29463531 39.06095709 21.3414102 41.37109375 22.390625 C42.38099365 22.84469727 43.39089355 23.29876953 44.43139648 23.76660156 C47 25 47 25 50 27 C47.69 27.66 45.38 28.32 43 29 C43.72902302 33.76989347 46.3661634 35.44576415 50.1015625 38.203125 C64.98968655 47.43295932 83.865121 50.75274879 100.625 55.125 C101.27364014 55.29521667 101.92228027 55.46543335 102.59057617 55.64080811 C109.64771504 57.4871837 116.69482483 59.17528244 123.85546875 60.55859375 C129.61491037 61.68165484 135.13743957 63.03942486 140.6875 64.9375 C141.53546143 65.22399414 142.38342285 65.51048828 143.25708008 65.80566406 C151.36429944 68.63146478 159.28463002 71.90411814 167.1875 75.25 C167.81280609 75.51207245 168.43811218 75.7741449 169.08236694 76.04415894 C170.86537568 76.79494121 172.64182976 77.56123227 174.41796875 78.328125 C175.44688232 78.7705957 176.4757959 79.21306641 177.53588867 79.66894531 C180 81 180 81 182 84 C178.26396617 85.24534461 174.77117512 85.1557813 170.87890625 85.17578125 C169.21352632 85.19560906 167.54816146 85.21673576 165.8828125 85.23901367 C165.01301758 85.25016205 164.14322266 85.26131042 163.24707031 85.27279663 C142.53493822 85.57911806 123.96980754 87.09318292 105 96 C103.85789062 96.53625 102.71578125 97.0725 101.5390625 97.625 C93.93649681 101.45286524 88.10709783 106.12693329 82 112 C80.94758047 112.86655645 79.88661909 113.72299114 78.8125 114.5625 C75.14156417 117.74397772 72.11714981 121.28486635 69 125 C68.28585937 125.8146875 67.57171875 126.629375 66.8359375 127.46875 C48.70145362 148.65680677 37.49681104 178.1615131 37.75 206.0625 C37.75676758 207.15232178 37.76353516 208.24214355 37.77050781 209.36499023 C38.19328246 242.81580493 47.65257802 269.62116581 71 294 C71.804375 294.845625 72.60875 295.69125 73.4375 296.5625 C74.283125 297.366875 75.12875 298.17125 76 299 C76.68191406 299.66515625 77.36382812 300.3303125 78.06640625 301.015625 C92.90498493 315.02057566 113.96486959 325.87960865 134 330 C134.67659668 330.14518066 135.35319336 330.29036133 136.05029297 330.43994141 C169.3891435 337.34198051 205.90805324 333.62905363 235 315 C236.34034458 313.67371498 237.67548667 312.34209537 239 311 C239.66 311 240.32 311 241 311 C241.14622803 311.55985596 241.29245605 312.11971191 241.44311523 312.6965332 C242.10687509 315.23546071 242.77217038 317.77398342 243.4375 320.3125 C243.66759766 321.19357422 243.89769531 322.07464844 244.13476562 322.98242188 C244.35712891 323.82998047 244.57949219 324.67753906 244.80859375 325.55078125 C245.01282959 326.33106689 245.21706543 327.11135254 245.42749023 327.9152832 C245.89730574 329.62605276 246.4389778 331.3169334 247 333 C213.24753113 354.41237127 176.63193646 369.03479891 136 361 C135.18273437 360.83870605 134.36546875 360.67741211 133.5234375 360.51123047 C101.61550896 354.08021966 72.99707996 340.23642464 49 318 C48.319375 317.38898438 47.63875 316.77796875 46.9375 316.1484375 C21.64633267 292.37942376 7.09716593 255.93725388 5.88623047 221.79199219 C5.5909375 208.76567217 5.46420557 195.82470745 8 183 C8.11827148 182.36578125 8.23654297 181.7315625 8.35839844 181.078125 C14.14508225 150.68699167 30.80569985 112.52593886 56.8125 93.99609375 C58.6417567 92.86043022 60.48509653 91.74704125 62.34375 90.66015625 C66.928111 87.79493062 72.5328136 83.9343728 75 79 C73.93265625 78.83886719 72.8653125 78.67773438 71.765625 78.51171875 C53.20051858 75.28822934 38.03926287 66.4512459 25 53 C24.25621094 52.31292969 23.51242188 51.62585938 22.74609375 50.91796875 C10.02506843 39.06593188 2.64325187 20.99233344 0 4 C0 2.68 0 1.36 0 0 Z " fill="#15131A" transform="translate(210,141)"/>
<path d="M0 0 C1.12518539 0.00314209 1.12518539 0.00314209 2.27310181 0.00634766 C13.61542955 0.07168382 23.81295142 0.77161335 34.25 5.5 C34.88309082 5.77875977 35.51618164 6.05751953 36.16845703 6.34472656 C46.18027442 10.84817419 54.25297034 17.06108291 62.25 24.5 C63.20777344 25.36496094 64.16554688 26.22992188 65.15234375 27.12109375 C81.30813455 42.37052883 91.77502264 62.96312051 92.453125 85.3984375 C92.87231419 114.47371796 85.41454613 136.37475154 66.25 158.5 C65.74597656 159.09941406 65.24195313 159.69882812 64.72265625 160.31640625 C51.8051692 174.4829124 30.1697975 184.79122476 11.25 186.5 C7.02012017 186.66657133 2.79529006 186.68507988 -1.4375 186.6875 C-2.54544922 186.69974609 -3.65339844 186.71199219 -4.79492188 186.72460938 C-28.62488531 186.76639189 -50.11155006 177.84055887 -67.1015625 161.1875 C-87.4976159 140.49061985 -95.14606375 118.21887732 -95.1328125 89.45703125 C-94.95523346 65.41387351 -83.9139727 44.10800453 -67.5 26.75 C-58.99884372 18.75239653 -49.66043525 12.64054114 -39.1875 7.5625 C-38.44516113 7.19705078 -37.70282227 6.83160156 -36.93798828 6.45507812 C-25.03827726 0.93950923 -12.92135767 -0.08283265 0 0 Z M-51.75 47.5 C-52.50023437 48.21800781 -53.25046875 48.93601562 -54.0234375 49.67578125 C-65.416369 61.2651426 -70.29359144 78.34360158 -70.17211914 94.26611328 C-69.44995436 114.07473792 -60.91152465 130.2399396 -46.62890625 143.8515625 C-31.50314476 157.1219811 -14.31576576 160.29717246 5.25 159.5 C22.91127664 158.07406071 39.30329091 149.5082099 51.25 136.5 C64.33921728 120.043497 67.93827079 101.15584753 66.25 80.5 C63.54523885 64.14879074 54.41184193 48.79940945 41.375 38.6875 C11.21519806 17.30077403 -26.32324585 21.51070704 -51.75 47.5 Z " fill="#13121A" transform="translate(384.75,255.5)"/>
<path d="M0 0 C0.68626465 0.29471191 1.3725293 0.58942383 2.07958984 0.89306641 C11.11682232 4.89642924 19.34628059 9.70492901 27 16 C27.97453125 16.79921875 28.9490625 17.5984375 29.953125 18.421875 C47.17450503 33.09849601 58.55632648 52.93652368 60.82348633 75.60571289 C61.65953485 86.94613868 61.99618489 98.97148967 59 110 C58.57460938 111.77117187 58.57460938 111.77117187 58.140625 113.578125 C53.66882177 130.77505958 43.5661432 144.72891818 31 157 C29.87851562 158.13501953 29.87851562 158.13501953 28.734375 159.29296875 C10.66016957 176.59734692 -13.77718627 181.79577402 -37.98046875 181.28515625 C-62.77169321 180.36324826 -86.75913901 168.21260867 -103.75 150.25 C-122.29213646 128.44172574 -128.00906727 103.23918022 -126 75 C-123.78085453 57.76539943 -115.6269415 42.44840292 -105 29 C-104.36449219 28.18015625 -103.72898437 27.3603125 -103.07421875 26.515625 C-79.29115153 -2.20739408 -34.6890133 -14.89910121 0 0 Z M-61 25 C-61.97710938 25.41121094 -62.95421875 25.82242187 -63.9609375 26.24609375 C-80.07752686 34.0273124 -91.87785115 49.22181667 -98.0078125 65.7109375 C-103.44128052 82.85537544 -101.85504231 101.8523666 -94 118 C-91.91882341 121.56550702 -89.58956809 124.78788927 -87 128 C-85.99646484 129.24910156 -85.99646484 129.24910156 -84.97265625 130.5234375 C-74.7120192 142.58386079 -61.79204129 151.30344 -46 154 C-31.67868259 155.05885267 -18.25391483 154.78128999 -5 149 C-4.01257813 148.5771875 -3.02515625 148.154375 -2.0078125 147.71875 C8.39420825 142.65034329 17.89312037 133.79900457 24 124 C24.58394531 123.0925 25.16789062 122.185 25.76953125 121.25 C35.12285125 105.49704 37.0405905 87.71950541 33.171875 69.9453125 C30.28200222 59.30823466 24.35865836 49.13681533 17 41 C16.47019531 40.39027344 15.94039062 39.78054688 15.39453125 39.15234375 C4.96645675 27.88209696 -11.14947944 20.35212231 -26.46875 19.62890625 C-38.8917388 19.37652742 -49.5398466 20.06027871 -61 25 Z " fill="#13121B" transform="translate(673,261)"/>
<path d="M0 0 C9.68369427 5.72020321 15.87944231 14.84728633 22 24 C22.62132812 24.91265625 23.24265625 25.8253125 23.8828125 26.765625 C33.7216309 42.09242753 33.41500382 57.92323637 29.66357422 75.22167969 C22.55288226 104.99345103 10.44928992 133.63888546 -5 160 C-5.66 160 -6.32 160 -7 160 C-7.25652344 159.30519531 -7.51304687 158.61039063 -7.77734375 157.89453125 C-10.37757147 150.98685559 -13.18255071 144.20481038 -16.125 137.4375 C-19.83374879 128.87678119 -23.33714404 120.24529228 -26.75 111.5625 C-27.42119873 109.85888306 -27.42119873 109.85888306 -28.10595703 108.12084961 C-47.78156782 57.77829888 -47.78156782 57.77829888 -38.640625 35.0546875 C-32.08070173 22.84073512 -23.73755661 12.72718679 -13 4 C-12.30777344 3.401875 -11.61554688 2.80375 -10.90234375 2.1875 C-6.91487782 -1.03752739 -4.87215124 -1.30167336 0 0 Z " fill="#111018" transform="translate(517,390)"/>
<path d="M0 0 C-1.15242187 0.87978516 -1.15242187 0.87978516 -2.328125 1.77734375 C-4.57470032 3.64620538 -6.11339394 5.18729576 -7.75 7.5625 C-8.15734375 8.14128906 -8.5646875 8.72007812 -8.984375 9.31640625 C-11.89070636 14.13420939 -11.69647986 19.87406677 -10.50390625 25.2265625 C-8.98509094 29.80875106 -7.24145953 32.43539657 -3 35 C2.47929519 37.49058872 8.50873374 38.23042891 14.25 36.20703125 C19.17323482 33.84496454 22.6246112 31.51883841 24.6875 26.3125 C25.120625 25.219375 25.55375 24.12625 26 23 C29.86549889 26.86549889 30.18387212 31.4246572 30.375 36.6875 C30.15722092 47.67173252 25.72277837 56.20598373 18.1171875 63.90625 C8.65510193 72.66331743 -0.18581628 74.484251 -12.78125 74.28515625 C-17.85901205 74.06238847 -21.7136288 72.71313166 -26 70 C-27.546875 69.13375 -27.546875 69.13375 -29.125 68.25 C-38.13128689 61.20160156 -43.46840272 52.32625645 -45 41 C-45.8228004 32.23789745 -44.37632153 23.49803718 -40.25 15.6875 C-39.5075 14.800625 -38.765 13.91375 -38 13 C-37.57589844 12.43925781 -37.15179687 11.87851562 -36.71484375 11.30078125 C-27.39335796 0.31048726 -13.39732805 -0.95066454 0 0 Z " fill="#0F0F17" transform="translate(648,311)"/>
<path d="M0 0 C-0.77859375 0.77085937 -1.5571875 1.54171875 -2.359375 2.3359375 C-7.60505396 7.62817574 -10.12940089 11.16116282 -10.3125 18.6875 C-10.2445771 24.3047239 -9.58288839 28.56404295 -6 33 C-1.04669835 37.04351155 3.02348141 37.58968686 9.35546875 37.3125 C15.91134522 36.53780263 19.77630059 33.86620326 23.77734375 28.8515625 C25.41708737 26.36837248 26.29768895 23.8794753 27 21 C31.78065852 28.17098779 31.67512865 34.57777014 31 43 C28.58295285 54.06897727 21.99060193 62.3540391 13 69 C3.89143405 74.55605686 -5.59091777 74.7493718 -16 74 C-19.35171643 73.10897897 -22.06269751 71.8207469 -25 70 C-26.010625 69.443125 -27.02125 68.88625 -28.0625 68.3125 C-37.38124614 60.9764658 -42.04448446 52.65930019 -44 41 C-44.73198788 30.71812375 -43.1315046 21.46087522 -37 13 C-26.6485587 1.22735672 -14.8469024 -0.8478561 0 0 Z " fill="#100F18" transform="translate(390,311)"/>
<path d="M0 0 C5.51325235 2.44913558 9.35087878 6.50582834 12.80859375 11.38671875 C14.50621797 16.4795914 14.4435657 21.40243142 12.80859375 26.51171875 C9.85378916 30.75925035 5.8904605 35.30525232 0.8828125 37.0625 C-5.19201258 38.01204893 -11.11676788 38.46855221 -16.62890625 35.38671875 C-20.65688367 32.41742944 -22.91620865 29.23246962 -24.19140625 24.38671875 C-24.89143921 18.90312725 -25.17426252 13.46769846 -22.56640625 8.44921875 C-16.48864262 0.61210249 -9.92762911 -2.77832045 0 0 Z " fill="#F0F5EF" transform="translate(403.19140625,311.61328125)"/>
<path d="M0 0 C5.41057176 2.83873048 9.27961272 7.50143333 12.3046875 12.7265625 C13.53645629 17.89999141 13.54900883 22.562412 11.8046875 27.6015625 C8.59797964 32.30473402 4.504627 35.92541519 -1.0703125 37.3515625 C-7.14227866 38.00546655 -12.72709603 37.46649437 -18.0703125 34.3515625 C-22.49452727 30.54494116 -24.62890145 25.99829685 -25.32421875 20.25390625 C-25.63183769 14.46868552 -24.45098137 10.08243754 -21.0703125 5.3515625 C-15.12884357 -0.75663133 -8.30554219 -2.6013585 0 0 Z " fill="#F1F5EF" transform="translate(661.0703125,311.6484375)"/>
<path d="M0 0 C2.84917887 0.16689751 3.95411068 0.95809352 6.0703125 2.890625 C7.08738281 4.05851562 7.08738281 4.05851562 8.125 5.25 C8.80820312 6.01828125 9.49140625 6.7865625 10.1953125 7.578125 C16.07840599 15.47318552 14.3982943 24.85222836 13.12695312 34.07128906 C11.05112009 47.79007161 7.13810342 61.86189658 -3 72 C-3.86030793 68.27564454 -4.13126212 64.82298123 -4.14526367 61.00390625 C-4.15164352 59.81917725 -4.15802338 58.63444824 -4.16459656 57.41381836 C-4.16570938 56.1428833 -4.1668222 54.87194824 -4.16796875 53.5625 C-4.17129715 52.24967041 -4.17462555 50.93684082 -4.17805481 49.58422852 C-4.18402891 46.81037574 -4.18589639 44.03655406 -4.18530273 41.26269531 C-4.185201 37.71527513 -4.19887224 34.1680546 -4.21607494 30.62068176 C-4.22988795 27.22628483 -4.22928398 23.83192468 -4.23046875 20.4375 C-4.23765427 19.16656494 -4.24483978 17.89562988 -4.25224304 16.58618164 C-4.24916641 15.40145264 -4.24608978 14.21672363 -4.24291992 12.99609375 C-4.24434494 11.95638428 -4.24576996 10.9166748 -4.24723816 9.84545898 C-3.88835845 5.71511963 -2.9418991 2.9418991 0 0 Z " fill="#EBF0EB" transform="translate(518,415)"/>
<path d="M0 0 C6.93 0 13.86 0 21 0 C20.88036149 5.1088191 20.75783011 10.21739067 20.62768555 15.32592773 C20.58427427 17.06514288 20.54260388 18.80440235 20.50268555 20.54370117 C20.44513232 23.03838488 20.3813958 25.5328441 20.31640625 28.02734375 C20.29133751 29.2007859 20.29133751 29.2007859 20.26576233 30.39793396 C20.11387171 35.88612829 20.11387171 35.88612829 19 37 C16.13732433 37.07325168 13.299281 37.09238205 10.4375 37.0625 C9.63119141 37.05798828 8.82488281 37.05347656 7.99414062 37.04882812 C5.99606244 37.03700518 3.99802217 37.01906914 2 37 C0.44504302 33.89008604 0.75923044 30.56655951 0.68359375 27.1484375 C0.66281265 26.37440582 0.64203156 25.60037415 0.62062073 24.80288696 C0.55516552 22.32701608 0.49625913 19.85103798 0.4375 17.375 C0.39431093 15.69790552 0.35069652 14.02082193 0.30664062 12.34375 C0.19868658 8.22927502 0.09958386 4.11472023 0 0 Z " fill="#0D0C14" transform="translate(502,681)"/>
<path d="M0 0 C8.25 0 16.5 0 25 0 C26.46484375 13.18359375 26.46484375 13.18359375 26.72094727 15.57958984 C26.91111209 17.229016 27.12892989 18.87543311 27.37084961 20.51806641 C27.48307861 21.31776855 27.59530762 22.1174707 27.7109375 22.94140625 C27.82099121 23.66142822 27.93104492 24.3814502 28.04443359 25.12329102 C28 27 28 27 25.6875 29.5 C21.36014275 31.91526916 17.97030307 32.78038403 13 32 C7.07372953 28.51395855 4.33086716 23.36810499 2 17 C0.62687332 11.2798246 0 5.88301339 0 0 Z " fill="#181822" transform="translate(428,555)"/>
<path d="M0 0 C6.93 0 13.86 0 21 0 C21.226875 1.7325 21.45375 3.465 21.6875 5.25 C22.63163155 11.07329314 24.47168861 15.98754661 26.9765625 21.30859375 C28.0641465 24.16869059 28.43636524 25.97553747 28 29 C25.27638497 32.74186624 21.76621331 34.74459556 17.4375 36.1875 C13.03512247 35.94737032 10.89865753 34.11935022 8 31 C6.45277234 28.64801192 5.30826757 26.20302424 4.1875 23.625 C3.88908203 22.99078125 3.59066406 22.3565625 3.28320312 21.703125 C-0.01250571 14.41239214 0 8.09501676 0 0 Z " fill="#12121B" transform="translate(450,622)"/>
<path d="M0 0 C8.25 0.33 16.5 0.66 25 1 C25 13.27406843 24.11839253 21.57601835 15.5859375 30.57421875 C13.20937931 32.71077968 12.00149714 32.99982725 8.75 33.375 C3.89908323 32.88990832 2.15309004 31.69142249 -1 28 C-1.70389606 24.58204316 -1.35944012 21.38119284 -0.47875977 17.99707031 C0.32803726 14.6316447 0.1017121 11.19094856 0.0625 7.75 C0.041875 5.1925 0.02125 2.635 0 0 Z " fill="#14131C" transform="translate(571,554)"/>
<path d="M0 0 C7.59 0 15.18 0 23 0 C21.71972955 14.08297494 20.24590397 22.38251121 10.5625 32.5625 C8 34 8 34 4.5 34.0625 C0.28771289 32.78376999 -1.43573777 31.57442614 -4 28 C-4.520577 21.85719143 -3.21403298 16.06568701 -2 10.0625 C-1.34 6.741875 -0.68 3.42125 0 0 Z " fill="#14131A" transform="translate(554,623)"/>
<path d="M0 0 C3.8916342 1.1347699 6.56019184 3.62292965 9.18359375 6.63671875 C10.94947443 10.16848011 10.06639617 13.89077333 9.18359375 17.63671875 C7.19456034 21.81657158 4.67790113 25.57247997 1.18359375 28.63671875 C-2.90958453 30.00111151 -6.54670022 30.40724517 -10.81640625 29.63671875 C-14.19475975 27.60345044 -17.03987114 25.18978898 -18.81640625 21.63671875 C-19.37470403 15.94208144 -18.30201878 12.10419396 -14.81640625 7.63671875 C-10.54058479 2.70456353 -6.77020098 -0.52800528 0 0 Z " fill="#E6EDEA" transform="translate(740.81640625,581.36328125)"/>
<path d="M0 0 C0.99386719 0.0407666 1.98773437 0.0815332 3.01171875 0.12353516 C4.08679688 0.16736328 5.161875 0.21119141 6.26953125 0.25634766 C7.40132812 0.30791016 8.533125 0.35947266 9.69921875 0.41259766 C11.39691406 0.47833984 11.39691406 0.47833984 13.12890625 0.54541016 C21.57145794 0.90983685 21.57145794 0.90983685 22.69921875 2.03759766 C22.14877289 12.31258706 18.06215521 19.91382851 10.69921875 27.03759766 C7.15792691 29.39845888 5.87171657 29.61029344 1.69921875 29.03759766 C-1.8605531 26.57314022 -5.08148995 24.30511722 -6.30078125 20.03759766 C-6.89061072 13.31354169 -5.46087041 7.40594341 -3.30078125 1.03759766 C-2.30078125 0.03759766 -2.30078125 0.03759766 0 0 Z " fill="#14141F" transform="translate(614.30078125,594.96240234375)"/>
<path d="M0 0 C4.87433041 2.12042171 9.52164954 5.24982828 12 10 C12.75136935 15.18131779 12.88119194 19.45791411 10.25 24.0625 C5.64960868 28.02394808 1.68269197 28.61148839 -4.30078125 28.515625 C-8.20318322 27.77015892 -9.71179226 26.04320688 -11.91796875 22.8515625 C-12.27503906 22.24054687 -12.63210938 21.62953125 -13 21 C-13.45375 20.236875 -13.9075 19.47375 -14.375 18.6875 C-15.36666153 14.42335541 -15.71931061 10.33722934 -15 6 C-10.7875714 0.56818418 -6.79753349 -1.06136926 0 0 Z " fill="#0D0D16" transform="translate(284,778)"/>
<path d="M0 0 C5.52901534 3.36939995 9.55561781 8.04846077 12 14 C12.07812359 18.53116843 11.5581005 20.33909151 8.625 23.8125 C3.71830986 27.90140845 3.71830986 27.90140845 -0.1875 28.4375 C-5.88988535 27.78312791 -9.82237084 25.52174833 -13.58203125 21.16796875 C-16.72813643 16.57120988 -18.36091593 12.5941969 -18 7 C-13.55729118 1.31086455 -7.2200152 -1.55725818 0 0 Z " fill="#E7EBE6" transform="translate(291,583)"/>
<path d="M0 0 C3.05985681 -0.15500213 4.86157148 -0.23710189 7.26953125 1.76953125 C10.30571536 8.34793014 11.52185884 14.97427601 10.39453125 22.20703125 C8.19293385 25.10386993 6.60858663 26.60000356 3.39453125 28.20703125 C-3.52299452 28.77404156 -3.52299452 28.77404156 -7.23046875 26.83203125 C-14.43679335 18.86714617 -16.7834883 11.71018477 -16.60546875 1.20703125 C-11.07245972 0.77185076 -5.53231518 0.43959926 0 0 Z " fill="#15131D" transform="translate(408.60546875,594.79296875)"/>
<path d="M0 0 C7.92 0.66 15.84 1.32 24 2 C24.061875 5.031875 24.12375 8.06375 24.1875 11.1875 C24.21481201 12.13391357 24.24212402 13.08032715 24.27026367 14.05541992 C24.32890095 19.99543876 23.41425288 23.30717948 19.375 27.8125 C15.61965252 29.69017374 12.10310386 29.76088754 8 29 C4.77929646 27.34538909 2.62784358 25.1237336 0.84765625 21.9375 C-0.38223215 17.67539828 -0.2098088 13.59568124 -0.125 9.1875 C-0.08375 6.155625 -0.0425 3.12375 0 0 Z " fill="#110E16" transform="translate(500,757)"/>
<path d="M0 0 C4.47494949 3.74646934 6.4433764 6.66228986 7 12.5625 C6.52209269 18.20180622 4.15799853 20.95048967 0 24.625 C-4.25575459 26.71272867 -7.65704855 27.23928343 -12.3125 26.25 C-15.37715807 24.51974513 -17.71441031 22.44617938 -19.3125 19.25 C-19.48772676 16.98354234 -19.57978256 14.71027146 -19.625 12.4375 C-19.66238281 11.21417969 -19.69976563 9.99085938 -19.73828125 8.73046875 C-19.24225812 4.67582095 -18.13476953 3.1302975 -15.3125 0.25 C-10.59365629 -3.28913278 -4.89249878 -2.58471634 0 0 Z " fill="#0E0E15" transform="translate(747.3125,779.75)"/>
<path d="M0 0 C12.87 0.495 12.87 0.495 26 1 C24.59005699 17.91931614 24.59005699 17.91931614 17.625 24.4375 C14.4929378 26.88693326 12.08050465 28.08870662 8 28 C5.12127423 26.6260627 3.25010563 25.25010563 1 23 C0.68115234 20.66162109 0.68115234 20.66162109 0.5859375 17.7734375 C0.55032715 16.84450684 0.5147168 15.91557617 0.47802734 14.95849609 C0.44402832 13.77594238 0.4100293 12.59338867 0.375 11.375 C0.25125 7.62125 0.1275 3.8675 0 0 Z " fill="#171622" transform="translate(629,532)"/>
<path d="M0 0 C0.05416741 2.72943537 0.09375225 5.45778564 0.125 8.1875 C0.15013672 9.34088867 0.15013672 9.34088867 0.17578125 10.51757812 C0.21231011 14.77318977 0.11963376 18.1818045 -2 22 C-6.1294159 25.4571854 -9.5872332 27 -15 27 C-19.13806139 25.05267699 -22.14102321 22.50248125 -24.3203125 18.4140625 C-25.88698637 12.84966911 -25.26549689 6.73030782 -25 1 C-23.35451172 1.01740234 -23.35451172 1.01740234 -21.67578125 1.03515625 C-20.22135588 1.04453964 -18.76692865 1.05363925 -17.3125 1.0625 C-16.59126953 1.07087891 -15.87003906 1.07925781 -15.12695312 1.08789062 C-9.96887562 1.11144349 -5.11405765 0 0 0 Z " fill="#13141F" transform="translate(525,587)"/>
<path d="M0 0 C0.29032258 19.06451613 0.29032258 19.06451613 -3 24 C-6.32107885 26.21405257 -8.67464292 27.26818323 -12.6484375 27.52734375 C-17.62058667 26.41232691 -20.30372079 22.04112264 -23 18 C-25.77895588 12.67366789 -25.18817782 6.87532985 -25 1 C-24.1646875 1.01740234 -24.1646875 1.01740234 -23.3125 1.03515625 C-19.4709103 1.08058045 -15.74570288 1.03753957 -11.9375 0.5 C-7.8751707 -0.01585134 -4.08663033 -0.07297554 0 0 Z " fill="#171825" transform="translate(398,532)"/>
<path d="M0 0 C4.03172828 3.31497658 5.58707609 5.54131216 6.25 10.75 C5.72856726 14.99595227 4.54332959 17.05067577 1.8125 20.3125 C-1.60207004 22.90286348 -5.02032171 22.74358741 -9.1875 22.3125 C-12.97330423 20.27399003 -16.23811257 18.21127487 -18.1875 14.3125 C-19.02436177 7.8268213 -19.02436177 7.8268213 -17.203125 4.53125 C-12.40141432 -1.51534864 -7.12474322 -3.77192288 0 0 Z " fill="#E6E8E3" transform="translate(317.1875,629.6875)"/>
<path d="M0 0 C3.57870973 2.69275235 6.28499572 5.80187256 7.68359375 10.1015625 C7.96493098 13.07569889 7.42999668 15.36044797 5.765625 17.8359375 C2.49209444 21.15623278 -0.40923981 22.42703006 -5.0625 22.6875 C-10.22699387 22.38046454 -12.52657277 20.74061394 -16 17 C-17.57455739 13.85088521 -17.34799118 11.47991184 -17 8 C-12.6950498 1.48107542 -7.86596063 -1.35620011 0 0 Z " fill="#E9ECE3" transform="translate(718,630)"/>
<path d="M0 0 C5.32448975 1.11642527 7.13894125 3.44514715 10.25 7.6875 C11.22986729 11.0190488 10.69605642 13.46962743 9.875 16.8125 C8.05160948 19.51817626 6.80042564 21.34978718 3.875 22.8125 C-0.8027683 23.45580802 -4.09761904 23.47601687 -8.125 20.875 C-10.76033864 16.83963771 -11.91561061 13.63602334 -11.125 8.8125 C-8.68508538 4.13406053 -5.50640087 0.37758177 0 0 Z " fill="#0C0C13" transform="translate(696.125,811.1875)"/>
<path d="M0 0 C3.56100793 2.57604829 4.76474581 4.23888351 6.0625 8.4375 C5.98411886 12.90522502 4.93800829 14.67541167 2 18 C-1.89854016 20.3180509 -5.53133621 20.47878541 -10 20 C-12.875 18.5625 -12.875 18.5625 -15 16 C-16.53287859 11.2758654 -16.50959399 8.03806183 -14.3125 3.5625 C-9.98184019 -1.23633924 -6.28337028 -1.90745169 0 0 Z " fill="#18181F" transform="translate(335,814)"/>
<path d="M0 0 C1.03444628 3.10333883 1.12083424 5.22876249 1.11352539 8.48120117 C1.11344986 9.60213669 1.11337433 10.7230722 1.11329651 11.87797546 C1.10813522 13.08742325 1.10297394 14.29687103 1.09765625 15.54296875 C1.0962413 16.78170242 1.09482635 18.0204361 1.09336853 19.29670715 C1.08871602 22.58631537 1.0797339 25.8758746 1.06866455 29.16546631 C1.05842629 32.52371623 1.05386574 35.88197333 1.04882812 39.24023438 C1.03779145 45.82684212 1.02104767 52.41341705 1 59 C2.485 58.505 2.485 58.505 4 58 C3.29445932 61.66881155 1.72264494 64.70450534 0 68 C-0.33 68 -0.66 68 -1 68 C-1.86353443 64.26516596 -2.13130315 60.80214555 -2.14526367 56.97216797 C-2.15164352 55.78098358 -2.15802338 54.58979919 -2.16459656 53.36251831 C-2.16570938 52.08530914 -2.1668222 50.80809998 -2.16796875 49.4921875 C-2.17129715 48.17461456 -2.17462555 46.85704163 -2.17805481 45.49954224 C-2.1840276 42.71729716 -2.18589644 39.93508307 -2.18530273 37.15283203 C-2.1852008 33.58727944 -2.19889295 30.0219246 -2.21607494 26.45641899 C-2.22985439 23.05167193 -2.22928293 19.64696212 -2.23046875 16.2421875 C-2.23765427 14.96092987 -2.24483978 13.67967224 -2.25224304 12.35958862 C-2.24916641 11.17470856 -2.24608978 9.98982849 -2.24291992 8.76904297 C-2.24434494 7.72489227 -2.24576996 6.68074158 -2.24723816 5.60494995 C-2 3 -2 3 0 0 Z " fill="#C9CFD3" transform="translate(516,419)"/>
<path d="M0 0 C-0.76183594 0.268125 -1.52367187 0.53625 -2.30859375 0.8125 C-12.12129914 4.53667283 -19.3731576 8.92313103 -24 18.625 C-28.33169479 29.4765653 -27.39236841 39.76441265 -25 51 C-25.66 51 -26.32 51 -27 51 C-29.35222195 45.40171177 -29.36697033 40.1575631 -29.375 34.1875 C-29.39949219 33.24068359 -29.42398437 32.29386719 -29.44921875 31.31835938 C-29.47663097 24.68003278 -28.18509446 19.82249705 -25 14 C-24.34 14 -23.68 14 -23 14 C-23.268125 13.443125 -23.53625 12.88625 -23.8125 12.3125 C-24 10 -24 10 -21.75 7.25 C-19 5 -19 5 -16 5 C-15.67 4.01 -15.34 3.02 -15 2 C-13.00390625 1.3046875 -13.00390625 1.3046875 -10.5625 0.875 C-2.19009638 -0.65702891 -2.19009638 -0.65702891 0 0 Z " fill="#2A9DE6" transform="translate(374,312)"/>
<path d="M0 0 C0.99 0.33 1.98 0.66 3 1 C-13.5167141 13.6798668 -31.56869684 17.41096339 -52 16 C-56.12835384 15.31416775 -60.02769032 14.30500558 -64 13 C-65.2375 12.608125 -66.475 12.21625 -67.75 11.8125 C-68.4925 11.544375 -69.235 11.27625 -70 11 C-70 10.67 -70 10.34 -70 10 C-65.33333333 10.66666667 -60.66666667 11.33333333 -56 12 C-56 12.66 -56 13.32 -56 14 C-51.98305421 13.98024453 -47.96786483 13.92754654 -43.95166016 13.84741211 C-41.93282665 13.81347216 -39.91363034 13.80383841 -37.89453125 13.79492188 C-28.61132984 13.58913662 -20.29382439 12.32900592 -12 8 C-11.67 7.01 -11.34 6.02 -11 5 C-9.02 4.67 -7.04 4.34 -5 4 C-5 3.34 -5 2.68 -5 2 C-3.35 2 -1.7 2 0 2 C0 1.34 0 0.68 0 0 Z " fill="#2598DD" transform="translate(424,399)"/>
<path d="M0 0 C2.89467178 1.04306936 3.87829993 1.79038721 5.44921875 4.49609375 C6.06216797 5.95208984 6.06216797 5.95208984 6.6875 7.4375 C7.10386719 8.40558594 7.52023437 9.37367188 7.94921875 10.37109375 C8.69039234 12.22540538 9.36850891 14.10552674 10 16 C10.66 16.33 11.32 16.66 12 17 C14.17317685 23.01024536 14.3192833 29.3703475 14.25 35.6875 C14.24613281 36.55020508 14.24226563 37.41291016 14.23828125 38.30175781 C14.13997942 45.66074172 13.34300555 52.75736291 12 60 C10.515 60.495 10.515 60.495 9 61 C9.144375 60.46117187 9.28875 59.92234375 9.4375 59.3671875 C14.28205774 37.9031053 10.4470668 18.95550265 0 0 Z " fill="#02173E" transform="translate(439,308)"/>
<path d="M0 0 C1.01255859 -0.00128906 2.02511719 -0.00257813 3.06835938 -0.00390625 C12.04366131 0.12456261 20.31596017 1.77007483 28.875 4.375 C28.875 5.035 28.875 5.695 28.875 6.375 C29.803125 6.5915625 29.803125 6.5915625 30.75 6.8125 C32.875 7.375 32.875 7.375 34.875 8.375 C34.875 9.035 34.875 9.695 34.875 10.375 C33.658125 9.9625 32.44125 9.55 31.1875 9.125 C30.34960938 8.85558594 29.51171875 8.58617187 28.6484375 8.30859375 C26.82019258 7.69317046 25.01047416 7.01924379 23.2265625 6.28515625 C8.71801509 0.8201404 -9.49535989 1.57464934 -24.125 6.375 C-24.125 5.715 -24.125 5.055 -24.125 4.375 C-16.16454967 0.46460335 -8.73744203 -0.01071421 0 0 Z " fill="#051939" transform="translate(639.125,278.625)"/>
<path d="M0 0 C0.66 0 1.32 0 2 0 C8.10295654 10.02628575 8.59732375 20.01531023 8.5625 31.4375 C8.56467529 32.14213379 8.56685059 32.84676758 8.5690918 33.57275391 C8.56287017 51.43712983 8.56287017 51.43712983 3 57 C1.6223088 52.8669264 2.90530035 49.65151809 3.9375 45.5625 C7.66950658 29.63389758 5.64311063 15.31701456 0 0 Z " fill="#021137" transform="translate(701,318)"/>
<path d="M0 0 C0.86866699 0.00604248 1.73733398 0.01208496 2.63232422 0.01831055 C9.8581248 0.12819599 17.39375207 0.25383278 24.375 2.25 C25.035 3.24 25.695 4.23 26.375 5.25 C25.71363037 5.10925049 25.05226074 4.96850098 24.37084961 4.82348633 C17.50083659 3.45503233 10.93578376 2.89628514 3.9375 2.9375 C2.9283252 2.94313965 1.91915039 2.9487793 0.87939453 2.95458984 C-11.70394115 3.15980814 -21.46821911 6.68960436 -32.625 12.25 C-32.625 11.59 -32.625 10.93 -32.625 10.25 C-31.965 10.25 -31.305 10.25 -30.625 10.25 C-30.625 9.59 -30.625 8.93 -30.625 8.25 C-29.59375 7.816875 -28.5625 7.38375 -27.5 6.9375 C-25.15160038 5.93978313 -22.9465248 4.88910894 -20.6875 3.6875 C-13.87142216 0.48811653 -7.41177934 -0.08260851 0 0 Z " fill="#041A3D" transform="translate(379.625,278.75)"/>
<path d="M0 0 C0.66 0.33 1.32 0.66 2 1 C1.60167969 1.78761719 1.20335937 2.57523437 0.79296875 3.38671875 C-6.56424322 18.51286014 -9.76813617 34.42892883 -5.33984375 50.984375 C-4.95237241 53.28248087 -5.29142099 54.7999365 -6 57 C-6 56.34 -6 55.68 -6 55 C-6.66 55 -7.32 55 -8 55 C-8.22786458 52.94921875 -8.45572917 50.8984375 -8.68359375 48.84765625 C-8.81886614 46.98859771 -8.81886614 46.98859771 -10 46 C-11.25418937 31.71176666 -8.56938004 19.49141864 -4 6 C-3.34 6 -2.68 6 -2 6 C-2 4.68 -2 3.36 -2 2 C-1.34 2 -0.68 2 0 2 C0 1.34 0 0.68 0 0 Z " fill="#021737" transform="translate(323,313)"/>
<path d="M0 0 C1.00538818 0.00088623 2.01077637 0.00177246 3.04663086 0.00268555 C13.90495637 0.17385384 23.19530705 2.29498069 32.875 7.375 C31.3125 8.0625 31.3125 8.0625 28.875 8.375 C26.5090213 7.45489717 24.17644109 6.44636051 21.875 5.375 C15.87636472 2.69190435 9.81492329 3.11677252 3.375 3.1875 C1.70244141 3.1884668 1.70244141 3.1884668 -0.00390625 3.18945312 C-5.18327483 3.21723281 -10.01782302 3.46476565 -15.125 4.375 C-17.80310075 4.48696073 -20.44232686 4.42125299 -23.125 4.375 C-16.31898691 -0.16234206 -7.94886986 -0.01264578 0 0 Z " fill="#2F8DDC" transform="translate(383.125,280.625)"/>
<path d="M0 0 C1.07636719 0.00322266 2.15273438 0.00644531 3.26171875 0.00976562 C4.38964844 0.01814453 5.51757812 0.02652344 6.6796875 0.03515625 C7.81535156 0.03966797 8.95101562 0.04417969 10.12109375 0.04882812 C12.93234388 0.0606401 15.7434898 0.07711118 18.5546875 0.09765625 C19.78473731 2.55775588 19.68782777 4.22938431 19.6796875 6.97265625 C19.68355469 8.26816406 19.68355469 8.26816406 19.6875 9.58984375 C19.56492671 11.90431596 19.20435195 13.88054741 18.5546875 16.09765625 C17.8946875 16.09765625 17.2346875 16.09765625 16.5546875 16.09765625 C16.5546875 11.80765625 16.5546875 7.51765625 16.5546875 3.09765625 C14.98976563 3.12085938 13.42484375 3.1440625 11.8125 3.16796875 C9.76823392 3.18672348 7.7239627 3.204924 5.6796875 3.22265625 C4.64714844 3.23941406 3.61460937 3.25617187 2.55078125 3.2734375 C1.56464844 3.27988281 0.57851563 3.28632812 -0.4375 3.29296875 C-1.80430908 3.3086792 -1.80430908 3.3086792 -3.19873047 3.32470703 C-5.4453125 3.09765625 -5.4453125 3.09765625 -7.4453125 1.09765625 C-4.83580014 -0.20709993 -2.91829965 -0.01535947 0 0 Z " fill="#CACBD0" transform="translate(579.4453125,551.90234375)"/>
<path d="M0 0 C2.77539029 0.42698312 4.2402569 1.17041053 6.56640625 2.8203125 C10.51734837 5.5122694 14.84134801 7.00434186 19.3125 8.625 C20.93595849 9.21488625 22.55719725 9.8109298 24.17578125 10.4140625 C25.24179565 10.80005615 25.24179565 10.80005615 26.3293457 11.19384766 C28 12 28 12 29 14 C31.02463255 14.65213292 31.02463255 14.65213292 33 15 C33 15.66 33 16.32 33 17 C33.66 17.33 34.32 17.66 35 18 C28.94993295 17.4673529 24.01516595 14.91268569 18.625 12.3125 C17.7175 11.89033203 16.81 11.46816406 15.875 11.03320312 C10.12290559 8.28562489 4.7872335 5.25484694 0 1 C0 0.67 0 0.34 0 0 Z " fill="#DEE2E6" transform="translate(217,145)"/>
<path d="M0 0 C1.6045556 0.14148989 3.20863767 0.28835686 4.8125 0.4375 C5.70582031 0.51871094 6.59914063 0.59992188 7.51953125 0.68359375 C10 1 10 1 13 2 C14.8952748 2.04601578 16.79204858 2.03805172 18.6875 2 C26.49196042 1.92953083 34.22089119 2.44078294 42 3 C36.97955675 5.95667168 31.73722672 5.38161053 26.0625 5.375 C24.93980713 5.37628906 23.81711426 5.37757813 22.66040039 5.37890625 C14.46824046 5.27449462 7.55252174 4.36334964 0 1 C0 0.67 0 0.34 0 0 Z " fill="#2E98D7" transform="translate(614,410)"/>
<path d="M0 0 C2.53273299 5.06546598 2.34355298 8.92992876 2.3125 14.5 C2.30903564 15.49016113 2.30557129 16.48032227 2.30200195 17.50048828 C2.19525398 24.68975786 1.42964475 31.19261696 -1 38 C-1.28617187 38.82242188 -1.57234375 39.64484375 -1.8671875 40.4921875 C-2.53949062 42.34262181 -3.26276426 44.17446389 -4 46 C-5.3805087 42.23331402 -4.59568159 39.55210827 -3.5625 35.75 C-3.27503906 34.67234375 -2.98757813 33.5946875 -2.69140625 32.484375 C-2.46324219 31.66453125 -2.23507812 30.8446875 -2 30 C-1.34 30 -0.68 30 0 30 C0 20.1 0 10.2 0 0 Z " fill="#339DE5" transform="translate(449,332)"/>
<path d="M0 0 C0.66 0.33 1.32 0.66 2 1 C-6.6119931 7.15996729 -13.06393917 10.2338538 -23.625 10.3125 C-24.71844727 10.32095947 -24.71844727 10.32095947 -25.83398438 10.32958984 C-30.25358979 10.27016488 -33.83719168 9.64805188 -38 8 C-35.05873053 7.14291366 -32.53710932 6.91152529 -29.48046875 7.0078125 C-28.62259766 7.02457031 -27.76472656 7.04132813 -26.88085938 7.05859375 C-25.09678721 7.10258103 -23.31289277 7.15456057 -21.52929688 7.21484375 C-15.80176812 7.3090888 -12.13486775 6.51154863 -7 4 C-6.01 4 -5.02 4 -4 4 C-3.67 3.01 -3.34 2.02 -3 1 C-2.01 0.67 -1.02 0.34 0 0 Z " fill="#03173B" transform="translate(663,375)"/>
<path d="M0 0 C1.07507813 -0.00773437 2.15015625 -0.01546875 3.2578125 -0.0234375 C4.29164063 -0.02085937 5.32546875 -0.01828125 6.390625 -0.015625 C7.79103027 -0.01224121 7.79103027 -0.01224121 9.21972656 -0.00878906 C11.84702651 0.25992359 13.49251504 0.91669363 15.75 2.25 C14.94780029 2.27505615 14.14560059 2.3001123 13.3190918 2.32592773 C9.69172926 2.44182043 6.06463083 2.56457751 2.4375 2.6875 C1.17486328 2.72681641 -0.08777344 2.76613281 -1.38867188 2.80664062 C-3.20141602 2.86948242 -3.20141602 2.86948242 -5.05078125 2.93359375 C-6.72394409 2.98858032 -6.72394409 2.98858032 -8.4309082 3.04467773 C-11.32873571 3.13931209 -11.32873571 3.13931209 -14.25 4.25 C-15.81118428 4.31740865 -17.3750252 4.33514456 -18.9375 4.3125 C-20.14986328 4.29896484 -20.14986328 4.29896484 -21.38671875 4.28515625 C-22.30904297 4.26775391 -22.30904297 4.26775391 -23.25 4.25 C-16.18253256 -0.46164496 -8.20144792 -0.05986458 0 0 Z " fill="#308CD9" transform="translate(640.25,280.75)"/>
<path d="M0 0 C0 0.33 0 0.66 0 1 C-12.54 0.67 -25.08 0.34 -38 0 C-27.90727113 -6.72848591 -10.82718417 -2.93381765 0 0 Z " fill="#E9EDE9" transform="translate(662,256)"/>
<path d="M0 0 C-0.28746094 0.55945313 -0.57492187 1.11890625 -0.87109375 1.6953125 C-7.04346936 14.29635613 -7.77614918 25.23484389 -6 39 C-6.66 38.67 -7.32 38.34 -8 38 C-9.06382225 33.52252026 -9.13438918 29.14911439 -9.125 24.5625 C-9.12886719 22.67724609 -9.12886719 22.67724609 -9.1328125 20.75390625 C-9.00243134 17.06872098 -8.59062733 13.63282683 -8 10 C-7.34 10 -6.68 10 -6 10 C-6.33 7.69 -6.66 5.38 -7 3 C-3.375 0 -3.375 0 0 0 Z " fill="#2E9DE8" transform="translate(611,322)"/>
<path d="M0 0 C1.14165925 3.35424709 0.83366749 5.11510633 -0.39453125 8.3984375 C-2.44952654 14.76810419 -2.55778685 20.97627467 -2.6875 27.625 C-2.72166016 28.81996094 -2.75582031 30.01492188 -2.79101562 31.24609375 C-2.87271612 34.16396851 -2.94211753 37.08157218 -3 40 C-3.33 40 -3.66 40 -4 40 C-6.44055048 27.10278203 -5.99716844 11.99433689 0 0 Z " fill="#2C8DD8" transform="translate(320,322)"/>
<path d="M0 0 C1.13442193 3.41215039 1.03350773 3.92066292 -0.4765625 7.49609375 C-1.18001894 8.81673367 -1.89670137 10.13039562 -2.625 11.4375 C-2.96917969 12.09298828 -3.31335938 12.74847656 -3.66796875 13.42382812 C-5.96299078 17.64548304 -8.44707776 20.7649708 -12 24 C-12 21.69 -12 19.38 -12 17 C-10.68 16.67 -9.36 16.34 -8 16 C-7.67 13.36 -7.34 10.72 -7 8 C-6.01 8 -5.02 8 -4 8 C-4 7.34 -4 6.68 -4 6 C-3.34 6 -2.68 6 -2 6 C-1.34 4.02 -0.68 2.04 0 0 Z " fill="#25ACF1" transform="translate(703,368)"/>
<path d="M0 0 C3.83318619 -0.08789644 7.66610928 -0.14069087 11.5 -0.1875 C13.11648438 -0.22520508 13.11648438 -0.22520508 14.765625 -0.26367188 C21.26748241 -0.32314008 26.08163414 0.26347404 32 3 C32 3.66 32 4.32 32 5 C31.071875 4.67 30.14375 4.34 29.1875 4 C25.13641807 2.84370316 21.38588791 2.90850653 17.19921875 2.99609375 C11.11869728 3.00351807 5.06058713 2.45802008 -1 2 C-0.67 1.34 -0.34 0.68 0 0 Z " fill="#228ED4" transform="translate(376,309)"/>
<path d="M0 0 C-6.96085184 2.89464397 -13.07870004 3.38066228 -20.5625 3.1875 C-21.57119141 3.17396484 -22.57988281 3.16042969 -23.61914062 3.14648438 C-26.08000621 3.11149576 -28.53970335 3.06241158 -31 3 C-31 2.34 -31 1.68 -31 1 C-31.99 0.67 -32.98 0.34 -34 0 C-33.0255896 0.00785522 -33.0255896 0.00785522 -32.03149414 0.01586914 C-29.04183957 0.03686503 -26.05220059 0.0497313 -23.0625 0.0625 C-22.04091797 0.07087891 -21.01933594 0.07925781 -19.96679688 0.08789062 C-15.21715972 0.10306518 -10.58783364 0.02235932 -5.87109375 -0.56640625 C-2 -1 -2 -1 0 0 Z " fill="#061F34" transform="translate(401,414)"/>
<path d="M0 0 C1.43931117 0.45261358 2.87638999 0.91232979 4.3125 1.375 C5.11300781 1.63023437 5.91351563 1.88546875 6.73828125 2.1484375 C9 3 9 3 12 5 C9.69 5.66 7.38 6.32 5 7 C5.50603992 9.16874252 5.99983813 10.99967627 7 13 C4 13 4 13 1.8125 11.5625 C-0.83090667 7.82526988 -0.34148909 4.43935818 0 0 Z " fill="#35303A" transform="translate(248,163)"/>
<path d="M0 0 C8.25 0.33 16.5 0.66 25 1 C25 3.31 25 5.62 25 8 C24.67 8 24.34 8 24 8 C24 6.02 24 4.04 24 2 C16.74 2 9.48 2 2 2 C2.33 3.32 2.66 4.64 3 6 C3.16796875 8 3.16796875 8 3.1875 10 C3.20167969 10.66 3.21585938 11.32 3.23046875 12 C3 14 3 14 1 18 C0.67 12.06 0.34 6.12 0 0 Z " fill="#0A0910" transform="translate(571,554)"/>
<path d="M0 0 C0.33 0 0.66 0 1 0 C1.33 10.23 1.66 20.46 2 31 C1.34 31 0.68 31 0 31 C-0.89699917 27.9246379 -1.12866019 25.17141481 -1.1328125 21.97265625 C-1.13410156 21.01552734 -1.13539063 20.05839844 -1.13671875 19.07226562 C-1.13285156 18.07904297 -1.12898437 17.08582031 -1.125 16.0625 C-1.12886719 15.07314453 -1.13273438 14.08378906 -1.13671875 13.06445312 C-1.13542969 12.10603516 -1.13414062 11.14761719 -1.1328125 10.16015625 C-1.13168457 9.29011963 -1.13055664 8.42008301 -1.12939453 7.52368164 C-0.9964076 4.92993466 -0.57137724 2.53034439 0 0 Z " fill="#E5E7E5" transform="translate(546,334)"/>
<path d="M0 0 C1.33655163 0.32018529 2.66938588 0.65597244 4 1 C5.39406215 1.07746641 6.79132537 1.10798769 8.1875 1.09765625 C8.96867187 1.09443359 9.74984375 1.09121094 10.5546875 1.08789062 C11.36164063 1.07951172 12.16859375 1.07113281 13 1.0625 C14.21042969 1.05573242 14.21042969 1.05573242 15.4453125 1.04882812 C16.94923379 1.04014211 18.45314569 1.02939452 19.95703125 1.01586914 C21.97130035 1.00022293 23.98567014 1 26 1 C27.15926382 5.25063401 26.90949326 8.70057734 26 13 C25.01 13.495 25.01 13.495 24 14 C24 10.37 24 6.74 24 3 C21.79570312 3.03480469 21.79570312 3.03480469 19.546875 3.0703125 C17.61458841 3.08907256 15.68229633 3.10727251 13.75 3.125 C12.29787109 3.15013672 12.29787109 3.15013672 10.81640625 3.17578125 C9.41455078 3.18544922 9.41455078 3.18544922 7.984375 3.1953125 C7.12553711 3.20578613 6.26669922 3.21625977 5.38183594 3.22705078 C2.82096404 2.98293323 1.20488971 2.28990512 -1 1 C-0.67 0.67 -0.34 0.34 0 0 Z " fill="#F1F3F6" transform="translate(429,552)"/>
<path d="M0 0 C6.38681794 0.141744 10.00537463 1.63152827 14.53515625 6.05859375 C17.28381119 9.08016479 19.04348464 11.29743018 19.8125 15.375 C19.1525 15.375 18.4925 15.375 17.8125 15.375 C17.8125 14.385 17.8125 13.395 17.8125 12.375 C17.1525 12.375 16.4925 12.375 15.8125 12.375 C14.375 10.87890625 14.375 10.87890625 12.8125 8.9375 C10.66724956 6.22311762 10.66724956 6.22311762 7.8125 4.375 C7.8125 3.715 7.8125 3.055 7.8125 2.375 C2.8625 2.375 -2.0875 2.375 -7.1875 2.375 C-4.63346852 -0.17903148 -3.54740775 0.04892976 0 0 Z " fill="#D2F9FE" transform="translate(653.1875,310.625)"/>
<path d="M0 0 C4.66666667 0.66666667 9.33333333 1.33333333 14 2 C14 2.66 14 3.32 14 4 C14.99 3.67 15.98 3.34 17 3 C17 3.66 17 4.32 17 5 C18.6396875 5.433125 18.6396875 5.433125 20.3125 5.875 C24 7 24 7 27 9 C20.56739186 8.76608698 15.03069436 7.17674155 9 5.0625 C8.23373291 4.79743652 7.46746582 4.53237305 6.67797852 4.25927734 C1.12726172 2.25452345 1.12726172 2.25452345 0 0 Z " fill="#D9E0E4" transform="translate(653,167)"/>
<path d="M0 0 C0.33 0.66 0.66 1.32 1 2 C-3.07698105 7.1498708 -7.41614295 11.11577288 -12.6328125 15.10546875 C-14.9257684 16.94059022 -16.96524998 18.88554779 -19 21 C-19.66 20.67 -20.32 20.34 -21 20 C-18.84762435 15.85308957 -16.60714949 13.7215727 -12.75 11.125 C-7.99147115 7.80098117 -3.91499706 4.27576471 0 0 Z " fill="#E4E6E0" transform="translate(453,411)"/>
<path d="M0 0 C0 0.99 0 1.98 0 3 C-8.70623392 10.5947998 -17.8613591 10.30988491 -29 10 C-29.33 9.34 -29.66 8.68 -30 8 C-28.53240234 7.94392578 -28.53240234 7.94392578 -27.03515625 7.88671875 C-16.72120644 7.36950003 -8.43402922 6.27145763 0 0 Z " fill="#3194E4" transform="translate(405,377)"/>
<path d="M0 0 C-1.39077301 0.82113177 -2.78788893 1.63152495 -4.1875 2.4375 C-4.96480469 2.88996094 -5.74210937 3.34242188 -6.54296875 3.80859375 C-11.56915857 6.24577641 -16.6272775 6.18249297 -22.125 6.1875 C-22.84042969 6.19974609 -23.55585938 6.21199219 -24.29296875 6.22460938 C-28.07820209 6.23522218 -29.77367012 6.15088659 -33 4 C-31.38544922 4.08701172 -31.38544922 4.08701172 -29.73828125 4.17578125 C-20.6132937 4.51028723 -13.91558133 3.90867027 -5.5390625 -0.00390625 C-3 -1 -3 -1 0 0 Z " fill="#032356" transform="translate(404,379)"/>
<path d="M0 0 C0.79994412 2.79764877 1.10243643 5.21248147 1.02734375 8.1171875 C1.01509766 8.88933594 1.00285156 9.66148437 0.99023438 10.45703125 C0.95524646 12.06129196 0.91622307 13.66547003 0.87304688 15.26953125 C0.80652466 19.97304313 1.28740805 23.54859367 3 28 C3.125 30.875 3.125 30.875 3 33 C-2.17215613 25.24176581 -3.11672848 15.41403024 -1.54296875 6.375 C-1.07776997 4.23307756 -0.57231264 2.1155128 0 0 Z " fill="#02234E" transform="translate(605,333)"/>
<path d="M0 0 C0.66 0.99 1.32 1.98 2 3 C-1.44175522 5.14699969 -3.7720292 5.09856795 -7.75 4.625 C-9.22726562 4.45871094 -9.22726562 4.45871094 -10.734375 4.2890625 C-11.85585938 4.14597656 -11.85585938 4.14597656 -13 4 C-13 3.34 -13 2.68 -13 2 C-4.3593482 -1.79502573 -4.3593482 -1.79502573 0 0 Z " fill="#1B1B20" transform="translate(361,174)"/>
<path d="M0 0 C0.66 0 1.32 0 2 0 C0.40554307 8.26218593 -2.26018069 16.06288986 -5 24 C-5.66 24 -6.32 24 -7 24 C-6.629351 18.24855005 -5.77783907 14.12831829 -3 9 C-1.91552766 6.02628853 -0.94633669 3.02022347 0 0 Z " fill="#EFF0EC" transform="translate(531,852)"/>
<path d="M0 0 C0.66 0.33 1.32 0.66 2 1 C-0.37852557 3.47366659 -2.84702215 5.70697509 -5.5 7.875 C-8.686944 10.56377074 -10.81099362 13.43273035 -13 17 C-13.66 17.66 -14.32 18.32 -15 19 C-15.99 18.67 -16.98 18.34 -18 18 C-6.25 4.25 -6.25 4.25 0 0 Z " fill="#409DE4" transform="translate(345,292)"/>
<path d="M0 0 C4.66666667 0.66666667 9.33333333 1.33333333 14 2 C14 2.66 14 3.32 14 4 C21.26 4.33 28.52 4.66 36 5 C36 5.33 36 5.66 36 6 C25.5330336 6.31400899 16.0691334 6.3079685 6 3 C4.14375 2.4121875 4.14375 2.4121875 2.25 1.8125 C1.5075 1.544375 0.765 1.27625 0 1 C0 0.67 0 0.34 0 0 Z " fill="#2F87BE" transform="translate(354,409)"/>
<path d="M0 0 C0.33 1.32 0.66 2.64 1 4 C0.34 4 -0.32 4 -1 4 C-1.0825 4.804375 -1.165 5.60875 -1.25 6.4375 C-1.89505478 9.50151021 -2.67071765 11.59602929 -4 14.375 C-6.00476221 18.65327877 -6.65837266 22.30262406 -7 27 C-7.66 26.67 -8.32 26.34 -9 26 C-8.48019252 20.23077875 -7.31463172 15.50728357 -5.0625 10.1875 C-4.66514648 9.20620117 -4.66514648 9.20620117 -4.25976562 8.20507812 C-3.04096983 5.24428139 -1.78224978 2.67337468 0 0 Z " fill="#2D90DE" transform="translate(582,312)"/>
<path d="M0 0 C3.71163209 2.6993688 4.29847125 6.7000414 5 11 C5 12.32 5 13.64 5 15 C4.34 15 3.68 15 3 15 C2.731875 14.2575 2.46375 13.515 2.1875 12.75 C1.16212946 9.9710039 1.16212946 9.9710039 -0.75 8.0625 C-1.1625 7.381875 -1.575 6.70125 -2 6 C-1.1875 2.75 -1.1875 2.75 0 0 Z " fill="#181B20" transform="translate(803,442)"/>
<path d="M0 0 C6.6 0.33 13.2 0.66 20 1 C20 1.33 20 1.66 20 2 C15.05 2.33 10.1 2.66 5 3 C5 3.66 5 4.32 5 5 C4.34 5 3.68 5 3 5 C2.34 6.32 1.68 7.64 1 9 C0.67 6.03 0.34 3.06 0 0 Z " fill="#0D0B0F" transform="translate(428,555)"/>
<path d="M0 0 C0.98245308 2.5981741 1.14815584 3.65249625 0.0390625 6.25390625 C-0.66089844 7.39666016 -0.66089844 7.39666016 -1.375 8.5625 C-2.90709924 11.10030684 -4.05692774 13.17078322 -5 16 C-7.0625 17.1875 -7.0625 17.1875 -9 18 C-8.45207105 13.3817417 -6.41035512 10.01850353 -3.9375 6.1875 C-3.56044922 5.59001953 -3.18339844 4.99253906 -2.79492188 4.37695312 C-1.87010434 2.91363423 -0.93597935 1.45620477 0 0 Z " fill="#E1E3EC" transform="translate(468,388)"/>
<path d="M0 0 C2.4375 0.375 2.4375 0.375 5 1 C5.495 1.99 5.495 1.99 6 3 C-5.55 3 -17.1 3 -29 3 C-29 2.67 -29 2.34 -29 2 C-19.43 2 -9.86 2 0 2 C0 1.34 0 0.68 0 0 Z " fill="#070507" transform="translate(386,222)"/>
<path d="M0 0 C0.66 0.33 1.32 0.66 2 1 C2.05390357 3.93774463 2.0936255 6.87450232 2.125 9.8125 C2.14175781 10.64587891 2.15851562 11.47925781 2.17578125 12.33789062 C2.18222656 13.14033203 2.18867187 13.94277344 2.1953125 14.76953125 C2.20578613 15.50792236 2.21625977 16.24631348 2.22705078 17.00708008 C2 19 2 19 0 22 C0 15.4 0 8.8 0 2 C-0.66 1.67 -1.32 1.34 -2 1 C-1.34 0.67 -0.68 0.34 0 0 Z " fill="#EBEEF5" transform="translate(525,584)"/>
<path d="M0 0 C0.5859375 1.84375 0.5859375 1.84375 1 4 C-0.375 6.5 -0.375 6.5 -2 9 C-2.12375 9.721875 -2.2475 10.44375 -2.375 11.1875 C-3 13 -3 13 -5.5625 14.25 C-6.366875 14.4975 -7.17125 14.745 -8 15 C-7.35256333 11.17009294 -5.54688763 8.4716102 -3.4375 5.25 C-2.79683594 4.26515625 -2.15617188 3.2803125 -1.49609375 2.265625 C-1.00238281 1.51796875 -0.50867188 0.7703125 0 0 Z " fill="#E4E8F1" transform="translate(727,386)"/>
<path d="M0 0 C0.33 0 0.66 0 1 0 C2.11031781 7.27726371 2.27704335 12.32454132 -1 19 C-1.66 19.66 -2.32 20.32 -3 21 C-4.06140282 17.81579155 -3.95892549 16.91540891 -3.22265625 13.76953125 C-3.03896484 12.96708984 -2.85527344 12.16464844 -2.66601562 11.33789062 C-2.36727539 10.08782227 -2.36727539 10.08782227 -2.0625 8.8125 C-1.86720703 7.96751953 -1.67191406 7.12253906 -1.47070312 6.25195312 C-0.98758736 4.166307 -0.49472096 2.08292386 0 0 Z " fill="#072144" transform="translate(707,354)"/>
<path d="M0 0 C-0.845625 0.43570312 -1.69125 0.87140625 -2.5625 1.3203125 C-9.10709077 4.75622266 -15.27601637 8.27901048 -21 13 C-19.79618552 10.50638429 -18.54571278 8.31856917 -17 6 C-16.34 6 -15.68 6 -15 6 C-14.34 5.01 -13.68 4.02 -13 3 C-10.72265625 1.796875 -10.72265625 1.796875 -8.0625 0.75 C-7.18722656 0.39421875 -6.31195312 0.0384375 -5.41015625 -0.328125 C-3 -1 -3 -1 0 0 Z " fill="#051637" transform="translate(614,286)"/>
<path d="M0 0 C7.26 0.33 14.52 0.66 22 1 C22 1.33 22 1.66 22 2 C12.595 2.495 12.595 2.495 3 3 C2.34 4.98 1.68 6.96 1 9 C0.67 9 0.34 9 0 9 C0 6.03 0 3.06 0 0 Z " fill="#0C0A0B" transform="translate(554,623)"/>
<path d="M0 0 C0.66 0.33 1.32 0.66 2 1 C1.10570912 9.34671491 0.05248577 17.67207858 -1 26 C-1.33 26 -1.66 26 -2 26 C-2.12118066 17.65199932 -2.15724883 9.2864731 -1 1 C-0.67 0.67 -0.34 0.34 0 0 Z " fill="#EFEFEC" transform="translate(290,323)"/>
<path d="M0 0 C0.33 0.66 0.66 1.32 1 2 C1.99 2.33 2.98 2.66 4 3 C4.33 4.65 4.66 6.3 5 8 C0.375 10.125 0.375 10.125 -3 9 C-2.01 6.03 -1.02 3.06 0 0 Z " fill="#222326" transform="translate(528,867)"/>
<path d="M0 0 C0.99 0.495 0.99 0.495 2 1 C2 1.66 2 2.32 2 3 C2.99 3.33 3.98 3.66 5 4 C4.34 4 3.68 4 3 4 C3.165 4.969375 3.33 5.93875 3.5 6.9375 C5.10313288 18.34530067 5.10313288 18.34530067 2 23 C1.93941406 21.92621094 1.87882813 20.85242188 1.81640625 19.74609375 C1.73192349 18.30988685 1.64727946 16.87368942 1.5625 15.4375 C1.52318359 14.73302734 1.48386719 14.02855469 1.44335938 13.30273438 C1.17481721 8.8201459 0.69383803 4.43706503 0 0 Z " fill="#F1F1F3" transform="translate(547,429)"/>
<path d="M0 0 C0.66 0 1.32 0 2 0 C2.64912281 19.37751787 2.64912281 19.37751787 -1 26 C-1.99 26.33 -2.98 26.66 -4 27 C-3.79503906 26.39671875 -3.59007812 25.7934375 -3.37890625 25.171875 C-3.10949219 24.37265625 -2.84007812 23.5734375 -2.5625 22.75 C-2.29566406 21.96109375 -2.02882813 21.1721875 -1.75390625 20.359375 C-1.38072266 19.19148438 -1.38072266 19.19148438 -1 18 C-0.8040625 17.3915625 -0.608125 16.783125 -0.40625 16.15625 C0.18657858 13.00969833 0.09210556 9.94740062 0.0625 6.75 C0.05347656 5.48671875 0.04445313 4.2234375 0.03515625 2.921875 C0.02355469 1.95765625 0.01195312 0.9934375 0 0 Z " fill="#379BE5" transform="translate(677,340)"/>
<path d="M0 0 C0.74958984 0.00902344 1.49917969 0.01804687 2.27148438 0.02734375 C4.11862654 0.05087422 5.96560412 0.08674439 7.8125 0.125 C6.1625 1.775 4.5125 3.425 2.8125 5.125 C2.4825 4.135 2.1525 3.145 1.8125 2.125 C-2.4775 2.125 -6.7675 2.125 -11.1875 2.125 C-7.39586973 -0.40275351 -4.37875969 -0.09943035 0 0 Z " fill="#0B1C34" transform="translate(382.1875,310.875)"/>
<path d="M0 0 C0.66 0 1.32 0 2 0 C0.68448876 4.60428934 -1.09196486 8.18320388 -4 12 C-4.66 12 -5.32 12 -6 12 C-6 13.32 -6 14.64 -6 16 C-6.66 16 -7.32 16 -8 16 C-7.42657506 11.7032405 -5.89841036 8.81520279 -3.5625 5.1875 C-2.94503906 4.21167969 -2.32757813 3.23585938 -1.69140625 2.23046875 C-1.13324219 1.49441406 -0.57507813 0.75835937 0 0 Z " fill="#E7EBF0" transform="translate(270,276)"/>
<path d="M0 0 C-0.49831724 3.68754757 -1.10067643 5.60490662 -4 8 C-4.33 6.35 -4.66 4.7 -5 3 C-6.32 2.67 -7.64 2.34 -9 2 C-3.375 -1.125 -3.375 -1.125 0 0 Z " fill="#534744" transform="translate(774,165)"/>
<path d="M0 0 C3.44765199 5.17147799 4.27842387 8.5068286 4.125 14.75 C4.11597656 15.44738281 4.10695313 16.14476562 4.09765625 16.86328125 C4.07419888 18.57566958 4.03833104 20.28788004 4 22 C3.67 22 3.34 22 3 22 C2.95101563 21.25234375 2.90203125 20.5046875 2.8515625 19.734375 C2.77679688 18.74953125 2.70203125 17.7646875 2.625 16.75 C2.55539062 15.77546875 2.48578125 14.8009375 2.4140625 13.796875 C2.01170498 11.07906386 1.34145868 9.36451667 0 7 C-1.02492497 3.9252251 -1.07094961 3.21284882 0 0 Z " fill="#041842" transform="translate(417,332)"/>
<path d="M0 0 C4.43458973 1.3937282 6.87378374 3.60582235 10 7 C9.67 7.99 9.34 8.98 9 10 C7.49147143 8.90751403 5.99337169 7.80061501 4.5 6.6875 C3.24703125 5.76517578 3.24703125 5.76517578 1.96875 4.82421875 C1.3190625 4.22222656 0.669375 3.62023437 0 3 C0 2.01 0 1.02 0 0 Z " fill="#E6E8E6" transform="translate(460,236)"/>
<path d="M0 0 C1.98 0.99 1.98 0.99 4 2 C4 2.66 4 3.32 4 4 C4.66 4 5.32 4 6 4 C7.65625 5.609375 7.65625 5.609375 9.5 7.75 C10.1084375 8.44609375 10.716875 9.1421875 11.34375 9.859375 C12.87976963 11.84460792 13.9723966 13.71872045 15 16 C9.75715884 11.6309657 4.48058696 7.16722236 0 2 C0 1.34 0 0.68 0 0 Z " fill="#0E0D14" transform="translate(320,754)"/>
<path d="M0 0 C0.66 0 1.32 0 2 0 C0.61166236 4.41743795 -1.39713352 7.0833938 -5 10 C-7.3125 9.8125 -7.3125 9.8125 -9 9 C-8.01 8.67 -7.02 8.34 -6 8 C-6 7.34 -6 6.68 -6 6 C-5.34 6 -4.68 6 -4 6 C-3.71125 5.38125 -3.4225 4.7625 -3.125 4.125 C-2 2 -2 2 0 0 Z " fill="#202021" transform="translate(746,432)"/>
<path d="M0 0 C1.1792926 2.8620259 1.01953176 3.94708669 -0.07421875 6.91015625 C-0.60660156 7.95042969 -1.13898438 8.99070312 -1.6875 10.0625 C-2.20699219 11.10535156 -2.72648437 12.14820313 -3.26171875 13.22265625 C-4.95241699 15.9239741 -6.33134256 17.3197342 -9 19 C-8.67 17.68 -8.34 16.36 -8 15 C-7.34 15 -6.68 15 -6 15 C-5.855625 14.401875 -5.71125 13.80375 -5.5625 13.1875 C-5.1127561 11.43849596 -4.57107659 9.71322977 -4 8 C-3.34 8 -2.68 8 -2 8 C-1.855625 7.236875 -1.71125 6.47375 -1.5625 5.6875 C-1 3 -1 3 0 0 Z " fill="#02193B" transform="translate(419,354)"/>
<path d="M0 0 C4.11196926 4.11196926 4.125 8.81895771 4.125 14.375 C4.09306244 16.25019095 4.05460198 18.1253321 4 20 C3.67 20 3.34 20 3 20 C3 16.7 3 13.4 3 10 C2.34 10 1.68 10 1 10 C-0.80411967 7.24075815 -1.0127245 6.11027897 -0.625 2.75 C-0.41875 1.8425 -0.2125 0.935 0 0 Z " fill="#041B42" transform="translate(674,334)"/>
<path d="M0 0 C0.66 0 1.32 0 2 0 C3.26305335 5.07476794 4.27036084 9.72796354 4 15 C3.34 15 2.68 15 2 15 C0.53329887 9.77487721 -0.22577402 5.4185766 0 0 Z " fill="#050D2C" transform="translate(449,325)"/>
<path d="M0 0 C0.66 0.33 1.32 0.66 2 1 C4.204364 1.22950319 6.41392173 1.41075933 8.625 1.5625 C9.81351563 1.64628906 11.00203125 1.73007813 12.2265625 1.81640625 C13.59941406 1.90728516 13.59941406 1.90728516 15 2 C15 2.33 15 2.66 15 3 C8.28837062 3.88021369 1.76594019 4.11381955 -5 4 C-3.73293765 1.46587529 -2.59334288 1.02161992 0 0 Z " fill="#211E24" transform="translate(637,222)"/>
<path d="M0 0 C0.33 0.66 0.66 1.32 1 2 C-1.64 5.63 -4.28 9.26 -7 13 C-7.66 11.68 -8.32 10.36 -9 9 C-8.01 9 -7.02 9 -6 9 C-5.67 7.35 -5.34 5.7 -5 4 C-4.01 4 -3.02 4 -2 4 C-2 3.01 -2 2.02 -2 1 C-1.34 0.67 -0.68 0.34 0 0 Z " fill="#E8E8E5" transform="translate(718,544)"/>
<path d="M0 0 C0.99 0.33 1.98 0.66 3 1 C1.54782324 2.50596108 0.08807139 4.00462104 -1.375 5.5 C-2.18710937 6.3353125 -2.99921875 7.170625 -3.8359375 8.03125 C-6 10 -6 10 -8 10 C-8 10.66 -8 11.32 -8 12 C-8.66 11.67 -9.32 11.34 -10 11 C-8.89718873 9.72799029 -7.79269231 8.45744147 -6.6875 7.1875 C-6.07261719 6.47980469 -5.45773437 5.77210938 -4.82421875 5.04296875 C-3.26665665 3.29863261 -1.67341125 1.63221959 0 0 Z " fill="#EAE8E7" transform="translate(767,455)"/>
<path d="M0 0 C0.66 0 1.32 0 2 0 C2.53293835 1.74635165 3.05090663 3.49727652 3.5625 5.25 C3.85253906 6.22453125 4.14257812 7.1990625 4.44140625 8.203125 C4.99249836 10.96243932 4.93789609 12.3912824 4 15 C1.55289624 13.13022903 1.03068507 12.17497517 0.48828125 9.08203125 C0.43027344 8.00308594 0.37226562 6.92414063 0.3125 5.8125 C0.21388672 4.18248047 0.21388672 4.18248047 0.11328125 2.51953125 C0.07589844 1.68808594 0.03851562 0.85664063 0 0 Z " fill="#1E1D23" transform="translate(799,304)"/>
<path d="M0 0 C0.33 0.66 0.66 1.32 1 2 C-0.09966775 3.29549899 -1.20491801 4.58626071 -2.3125 5.875 C-2.92738281 6.59429687 -3.54226563 7.31359375 -4.17578125 8.0546875 C-6 10 -6 10 -9 12 C-8.49897679 7.65779887 -5.85962472 5.13196993 -3 2 C-2.01 1.34 -1.02 0.68 0 0 Z " fill="#E9EDF1" transform="translate(547,251)"/>
<path d="M0 0 C0.99 0.33 1.98 0.66 3 1 C2.07213211 2.00894372 1.13231567 3.00690907 0.1875 4 C-0.59560547 4.8353125 -0.59560547 4.8353125 -1.39453125 5.6875 C-3 7 -3 7 -6 7 C-6 7.66 -6 8.32 -6 9 C-6.66 9 -7.32 9 -8 9 C-6.40758592 4.70048197 -3.64459275 2.60328053 0 0 Z " fill="#E3E3E4" transform="translate(563,235)"/>
<path d="M0 0 C3.63 1.32 7.26 2.64 11 4 C7 6 7 6 4 7 C3.34 7.66 2.68 8.32 2 9 C2.04125 8.2575 2.0825 7.515 2.125 6.75 C2.17133967 3.66578189 2.17133967 3.66578189 0 0 Z " fill="#56504F" transform="translate(249,163)"/>
<path d="M0 0 C1.32 0.33 2.64 0.66 4 1 C4 1.66 4 2.32 4 3 C4.66 3 5.32 3 6 3 C6.2226746 4.43534841 6.42761906 5.87345525 6.625 7.3125 C6.74101563 8.11300781 6.85703125 8.91351562 6.9765625 9.73828125 C7 12 7 12 5 15 C4.89042969 14.33613281 4.78085937 13.67226563 4.66796875 12.98828125 C3.78863977 8.09120522 3.00548286 4.09838572 0 0 Z " fill="#EBEDF1" transform="translate(702,813)"/>
<path d="M0 0 C0 3.99282941 -1.47808076 5.15331592 -4 8.1875 C-4.7425 9.08855469 -5.485 9.98960937 -6.25 10.91796875 C-6.8275 11.60503906 -7.405 12.29210937 -8 13 C-8.33 12.01 -8.66 11.02 -9 10 C-8.34 9.01 -7.68 8.02 -7 7 C-6.34 7 -5.68 7 -5 7 C-4.731875 6.21625 -4.46375 5.4325 -4.1875 4.625 C-3 2 -3 2 0 0 Z " fill="#EBEAE3" transform="translate(741,514)"/>
<path d="M0 0 C0.66 0 1.32 0 2 0 C2.9765625 1.79036458 3.953125 3.58072917 4.9296875 5.37109375 C5.91410024 7.16618315 5.91410024 7.16618315 8 8 C8.33 8.99 8.66 9.98 9 11 C9.66 11.33 10.32 11.66 11 12 C10.67 12.99 10.34 13.98 10 15 C5.81340142 11.17225273 2.62179138 7.05392126 0 2 C0 1.34 0 0.68 0 0 Z " fill="#2B96E1" transform="translate(579,377)"/>
<path d="M0 0 C0.66 0.33 1.32 0.66 2 1 C1.06027344 1.88751953 1.06027344 1.88751953 0.1015625 2.79296875 C-0.71570313 3.58316406 -1.53296875 4.37335938 -2.375 5.1875 C-3.18710937 5.96480469 -3.99921875 6.74210937 -4.8359375 7.54296875 C-6.98859852 9.987055 -8.00632706 11.92616557 -9 15 C-9.66 15 -10.32 15 -11 15 C-9.72163055 10.1534345 -8.00800748 7.55040706 -4.375 4.125 C-3.55773437 3.34382813 -2.74046875 2.56265625 -1.8984375 1.7578125 C-1.27195312 1.17773438 -0.64546875 0.59765625 0 0 Z " fill="#021B3C" transform="translate(617,317)"/>
<path d="M0 0 C5.02380113 1.56993785 9.0469983 4.60115742 13 8 C13.33 8.66 13.66 9.32 14 10 C10.42705968 8.67997942 7.36046508 7.10478612 4.1875 5 C3.39730469 4.484375 2.60710937 3.96875 1.79296875 3.4375 C1.20128906 2.963125 0.60960937 2.48875 0 2 C0 1.34 0 0.68 0 0 Z " fill="#3AA2EA" transform="translate(416,289)"/>
<path d="M0 0 C0.66 0 1.32 0 2 0 C0.60240043 5.08218027 -1.55021107 9.96671562 -5 14 C-5.99 14 -6.98 14 -8 14 C-8 13.34 -8 12.68 -8 12 C-7.34 12 -6.68 12 -6 12 C-5.67 10.68 -5.34 9.36 -5 8 C-4.34 8 -3.68 8 -3 8 C-2.87625 7.4225 -2.7525 6.845 -2.625 6.25 C-1.99351176 3.97664233 -1.11141809 2.0746471 0 0 Z " fill="#E9EDE6" transform="translate(596,725)"/>
<path d="M0 0 C0.66 0.33 1.32 0.66 2 1 C1.3503125 1.59748047 1.3503125 1.59748047 0.6875 2.20703125 C0.130625 2.73683594 -0.42625 3.26664062 -1 3.8125 C-1.556875 4.33457031 -2.11375 4.85664063 -2.6875 5.39453125 C-4.316465 7.04148967 -4.316465 7.04148967 -4 10 C-5.32 10 -6.64 10 -8 10 C-4 2.42857143 -4 2.42857143 0 0 Z " fill="#ECEEF1" transform="translate(537,264)"/>
<path d="M0 0 C0.66 0 1.32 0 2 0 C2.66 3.96 3.32 7.92 4 12 C3.34 12 2.68 12 2 12 C1.67 9.36 1.34 6.72 1 4 C0.01 4 -0.98 4 -2 4 C-1.34 2.68 -0.68 1.36 0 0 Z " fill="#1D1F20" transform="translate(449,452)"/>
<path d="M0 0 C0.33 1.98 0.66 3.96 1 6 C0.01 6.495 0.01 6.495 -1 7 C-1.66 6.34 -2.32 5.68 -3 5 C-3 3.68 -3 2.36 -3 1 C-4.98 1 -6.96 1 -9 1 C-5.64919071 -1.10976881 -3.77897651 -1.0497157 0 0 Z " fill="#D4C6B4" transform="translate(769,168)"/>
<path d="M0 0 C-2.13802098 2.32509781 -4.18598137 3.82167236 -7 5.25 C-8.0209375 5.78367188 -8.0209375 5.78367188 -9.0625 6.328125 C-11 7 -11 7 -14 6 C-13.360625 5.71125 -12.72125 5.4225 -12.0625 5.125 C-9.84793921 4.17176549 -9.84793921 4.17176549 -9 2 C-5.93853104 0.03191281 -3.59835033 -0.19990835 0 0 Z " fill="#E6ECE6" transform="translate(793,152)"/>
<path d="M0 0 C3 2 3 2 3.73046875 4.3828125 C3.88128906 5.28773438 4.03210938 6.19265625 4.1875 7.125 C4.34605469 8.03507813 4.50460937 8.94515625 4.66796875 9.8828125 C4.83232422 10.93082031 4.83232422 10.93082031 5 12 C2 11 2 11 0.8125 8.8125 C-0.07334979 5.74609689 -0.14770318 3.17561845 0 0 Z " fill="#0A0A0F" transform="translate(452,634)"/>
<path d="M0 0 C0.66 0 1.32 0 2 0 C2.6708712 1.6232687 3.33657029 3.24867578 4 4.875 C4.556875 6.23238281 4.556875 6.23238281 5.125 7.6171875 C6 10 6 10 6 12 C5.34 12 4.68 12 4 12 C3.32332002 10.75539217 2.65905281 9.50403104 2 8.25 C1.62875 7.55390625 1.2575 6.8578125 0.875 6.140625 C0 4 0 4 0 0 Z " fill="#D1D1D4" transform="translate(487,496)"/>
<path d="M0 0 C0 0.66 0 1.32 0 2 C-0.99 2 -1.98 2 -3 2 C-3 2.66 -3 3.32 -3 4 C-3.66 4 -4.32 4 -5 4 C-5 4.66 -5 5.32 -5 6 C-6.96466413 7.06775224 -8.96855359 8.06553465 -11 9 C-11.66 8.67 -12.32 8.34 -13 8 C-11.2126038 6.66094733 -9.41995047 5.32890934 -7.625 4 C-6.62726562 3.2575 -5.62953125 2.515 -4.6015625 1.75 C-2 0 -2 0 0 0 Z " fill="#3797E1" transform="translate(608,289)"/>
<path d="M0 0 C1.32 0.33 2.64 0.66 4 1 C4.05399736 2.45792884 4.09279177 3.91642712 4.125 5.375 C4.14820313 6.18710937 4.17140625 6.99921875 4.1953125 7.8359375 C4 10 4 10 2 12 C1.34 8.04 0.68 4.08 0 0 Z " fill="#EBEBF1" transform="translate(752,784)"/>
<path d="M0 0 C1.86785156 0.01353516 1.86785156 0.01353516 3.7734375 0.02734375 C5.18496094 0.04474609 5.18496094 0.04474609 6.625 0.0625 C6.625 0.3925 6.625 0.7225 6.625 1.0625 C5.70267578 1.15337891 5.70267578 1.15337891 4.76171875 1.24609375 C3.95347656 1.32988281 3.14523437 1.41367187 2.3125 1.5 C1.51199219 1.58121094 0.71148437 1.66242187 -0.11328125 1.74609375 C-2.53587179 2.01515693 -2.53587179 2.01515693 -5.375 3.0625 C-7.41796875 2.94140625 -7.41796875 2.94140625 -9.5625 2.625 C-10.820625 2.439375 -12.07875 2.25375 -13.375 2.0625 C-13.375 1.7325 -13.375 1.4025 -13.375 1.0625 C-8.85684719 0.17972245 -4.59987306 -0.04339503 0 0 Z " fill="#0B0C10" transform="translate(389.375,532.9375)"/>
<path d="M0 0 C0.66 0.33 1.32 0.66 2 1 C0.8905928 4.48670834 -0.26337666 7.77484237 -2 11 C-2.66 11 -3.32 11 -4 11 C-3.39301257 6.87248551 -1.96189209 3.6678852 0 0 Z " fill="#DFE1E9" transform="translate(535,501)"/>
<path d="M0 0 C-5.36190101 2.61407872 -10.03435204 4.49228528 -16 5 C-13.4345406 2.4345406 -11.52313332 2.45953913 -8 2 C-8 1.34 -8 0.68 -8 0 C-4.71303767 -0.79953138 -3.28976808 -1.09658936 0 0 Z " fill="#2B9FE2" transform="translate(672,408)"/>
<path d="M0 0 C0.33 0.66 0.66 1.32 1 2 C-0.375 4 -0.375 4 -2 6 C-2.66 6 -3.32 6 -4 6 C-4.66 7.32 -5.32 8.64 -6 10 C-6.66 10 -7.32 10 -8 10 C-7.44449305 6.40094092 -6.25112752 5.00090201 -3.4375 2.75 C-2.79683594 2.22921875 -2.15617187 1.7084375 -1.49609375 1.171875 C-1.00238281 0.78515625 -0.50867188 0.3984375 0 0 Z " fill="#E7E7E7" transform="translate(295,249)"/>
<path d="M0 0 C8.57142857 0.85714286 8.57142857 0.85714286 12 3 C12 3.33 12 3.66 12 4 C10.56138706 3.91253716 9.12402492 3.80434652 7.6875 3.6875 C6.88699219 3.62949219 6.08648438 3.57148438 5.26171875 3.51171875 C2.63727666 2.91793306 1.69179328 2.04219706 0 0 Z " fill="#E3E8E8" transform="translate(638,162)"/>
<path d="M0 0 C1.0169313 2.65498232 1.13022151 3.69155375 0.00390625 6.359375 C-0.47175781 7.14828125 -0.94742188 7.9371875 -1.4375 8.75 C-2.14712891 9.94882812 -2.14712891 9.94882812 -2.87109375 11.171875 C-3.24363281 11.77515625 -3.61617187 12.3784375 -4 13 C-4.58203125 11.12109375 -4.58203125 11.12109375 -5 9 C-3.6875 7.0625 -3.6875 7.0625 -2 5 C-1.28837557 3.35202764 -0.60968047 1.68834592 0 0 Z " fill="#EEEDEA" transform="translate(581,751)"/>
<path d="M0 0 C0.33 0.66 0.66 1.32 1 2 C1.66 2 2.32 2 3 2 C2.67 4.31 2.34 6.62 2 9 C1.01 9.33 0.02 9.66 -1 10 C-0.67 6.7 -0.34 3.4 0 0 Z " fill="#E6EAEE" transform="translate(637,597)"/>
<path d="M0 0 C0.66 0 1.32 0 2 0 C0.52278578 3.45201639 -1.43794001 5.64961936 -4.125 8.25 C-4.84945312 8.95640625 -5.57390625 9.6628125 -6.3203125 10.390625 C-6.87460937 10.92171875 -7.42890625 11.4528125 -8 12 C-8 8.45595664 -7.39010515 7.89732095 -5.125 5.3125 C-4.59132813 4.68988281 -4.05765625 4.06726563 -3.5078125 3.42578125 C-2 2 -2 2 0 2 C0 1.34 0 0.68 0 0 Z " fill="#F3F3F1" transform="translate(781,472)"/>
<path d="M0 0 C0.33 0.66 0.66 1.32 1 2 C0.07038578 3.15224028 -0.8690125 4.29659176 -1.8125 5.4375 C-2.59560547 6.39462891 -2.59560547 6.39462891 -3.39453125 7.37109375 C-5 9 -5 9 -8 10 C-6.34908222 5.70761377 -3.26245434 3.1206085 0 0 Z " fill="#EAEAE9" transform="translate(453,411)"/>
<path d="M0 0 C3.91020436 1.30340145 6.50108551 2.66811401 9 6 C9.25 9.25 9.25 9.25 9 12 C8.34 11.01 7.68 10.02 7 9 C5.18280646 6.88679303 3.32242167 4.81641272 1.4609375 2.7421875 C0 1 0 1 0 0 Z " fill="#3D9DDE" transform="translate(408,314)"/>
<path d="M0 0 C3.50695293 0.5653911 5.02732613 1.68722726 7.3125 4.375 C7.84488281 4.98085938 8.37726563 5.58671875 8.92578125 6.2109375 C9.28027344 6.80132812 9.63476562 7.39171875 10 8 C9.67 8.99 9.34 9.98 9 11 C8.60167969 10.45730469 8.20335937 9.91460937 7.79296875 9.35546875 C7.26316406 8.64003906 6.73335938 7.92460937 6.1875 7.1875 C5.66542969 6.47980469 5.14335937 5.77210938 4.60546875 5.04296875 C3.16871123 3.21468607 1.68184237 1.60103312 0 0 Z " fill="#041B42" transform="translate(429,297)"/>
<path d="M0 0 C1.21386936 3.64160808 0.6674695 4.33165469 -0.9375 7.6875 C-1.31777344 8.49574219 -1.69804688 9.30398438 -2.08984375 10.13671875 C-2.39019531 10.75160156 -2.69054687 11.36648438 -3 12 C-3.33 12 -3.66 12 -4 12 C-4.33292585 7.75519536 -4.43885872 5.64457375 -2 2.0625 C-1.34 1.381875 -0.68 0.70125 0 0 Z " fill="#EBECE8" transform="translate(537,839)"/>
<path d="M0 0 C0.33 0 0.66 0 1 0 C0.53680089 4.72463088 -0.09891706 8.17057052 -3 12 C-3.66 12 -4.32 12 -5 12 C-3.68938409 7.76570244 -2.05643741 3.92592596 0 0 Z " fill="#29292D" transform="translate(551,812)"/>
<path d="M0 0 C5.94 0.66 11.88 1.32 18 2 C18 2.33 18 2.66 18 3 C15.56242587 3.02698422 13.12515085 3.04683099 10.6875 3.0625 C9.99720703 3.07087891 9.30691406 3.07925781 8.59570312 3.08789062 C5.4516975 3.10307906 3.00579981 3.00193327 0 2 C0 1.34 0 0.68 0 0 Z " fill="#F2F5F3" transform="translate(632,530)"/>
<path d="M0 0 C1.31534494 3.65857532 0.65468309 6.08026481 -0.4375 9.75 C-0.86869141 11.22726562 -0.86869141 11.22726562 -1.30859375 12.734375 C-1.53675781 13.48203125 -1.76492188 14.2296875 -2 15 C-2.33 15 -2.66 15 -3 15 C-3.35050464 9.158256 -3.16727335 5.1468192 0 0 Z " fill="#EFEDEA" transform="translate(478,424)"/>
<path d="M0 0 C0.99 0.33 1.98 0.66 3 1 C1.35 2.98 -0.3 4.96 -2 7 C-2.99 6.67 -3.98 6.34 -5 6 C-3.35 4.02 -1.7 2.04 0 0 Z " fill="#2E9DF1" transform="translate(332,304)"/>
<path d="M0 0 C0.66 0.99 1.32 1.98 2 3 C1.21069203 5.48935591 0.1651105 7.669779 -1 10 C-1.99 10 -2.98 10 -4 10 C-2.8905928 6.51329166 -1.73662334 3.22515763 0 0 Z " fill="#212024" transform="translate(235,276)"/>
<path d="M0 0 C-1.54705733 3.09411467 -3.88071772 3.71558965 -7 5 C-9.375 4.6875 -9.375 4.6875 -11 4 C-4.5 0 -4.5 0 0 0 Z " fill="#EAEDE9" transform="translate(632,194)"/>
<path d="M0 0 C4.16138263 -0.08159574 7.9472484 0.01751476 12 1 C12 1.66 12 2.32 12 3 C7.45194365 3.17835515 4.1205746 2.99785435 0 1 C0 0.67 0 0.34 0 0 Z " fill="#EBEBEA" transform="translate(301,193)"/>
<path d="M0 0 C0 3 0 3 -1.625 4.6875 C-4.58198664 6.32162419 -6.67179946 6.22692276 -10 6 C-6.87567603 3.47650757 -3.61939504 1.72743854 0 0 Z " fill="#D1D6D4" transform="translate(558,862)"/>
<path d="M0 0 C1.39195915 4.17587745 -0.17676781 6.13474776 -2 10 C-2.99 10 -3.98 10 -5 10 C-3.84414715 6.08788267 -2.64465038 3.1254959 0 0 Z " fill="#E9E9E8" transform="translate(542,828)"/>
<path d="M0 0 C0 4.0333534 -1.60879918 5.83517538 -4 9 C-4.66 9 -5.32 9 -6 9 C-5.52797514 4.75177626 -3.03344482 2.80010291 0 0 Z " fill="#E4E4E9" transform="translate(763,686)"/>
<path d="M0 0 C0.99 0 1.98 0 3 0 C3.25 6.625 3.25 6.625 1 10 C0.22157062 6.59437148 -0.09978121 3.49234244 0 0 Z " fill="#0C0C14" transform="translate(809,564)"/>
<path d="M0 0 C0.33 0 0.66 0 1 0 C1.027193 1.58323688 1.04648306 3.16661062 1.0625 4.75 C1.07410156 5.63171875 1.08570313 6.5134375 1.09765625 7.421875 C1.00826198 9.7818838 0.66912821 11.74498524 0 14 C-0.66 14 -1.32 14 -2 14 C-2.04254356 12.00045254 -2.04080783 9.99958364 -2 8 C-1.67 7.67 -1.34 7.34 -1 7 C-0.63239269 4.67182036 -0.29758419 2.3381615 0 0 Z " fill="#E8EAF0" transform="translate(598,554)"/>
<path d="M0 0 C0.33 0 0.66 0 1 0 C1.33 3.96 1.66 7.92 2 12 C1.01 11.67 0.02 11.34 -1 11 C-1.125 3.375 -1.125 3.375 0 0 Z " fill="#CECECD" transform="translate(210,554)"/>
<path d="M0 0 C0.99 0.33 1.98 0.66 3 1 C2.06725891 2.12894876 1.12859878 3.25300876 0.1875 4.375 C-0.33457031 5.00148438 -0.85664062 5.62796875 -1.39453125 6.2734375 C-3 8 -3 8 -6 10 C-6 9.01 -6 8.02 -6 7 C-5.01 6.67 -4.02 6.34 -3 6 C-3 5.34 -3 4.68 -3 4 C-2.0206121 2.97980427 -1.02104551 1.97850195 0 1 C0 0.67 0 0.34 0 0 Z " fill="#ECECEB" transform="translate(768,484)"/>
<path d="M0 0 C0 4.38968456 -2.12805101 5.76905739 -5 9 C-5.66 8.67 -6.32 8.34 -7 8 C-3.375 2.25 -3.375 2.25 0 0 Z " fill="#EDEEF3" transform="translate(714,408)"/>
<path d="M0 0 C3.80984844 2.77079887 4.06840752 6.62868145 5 11 C4.01 10.67 3.02 10.34 2 10 C0.47839986 6.3962102 0 3.94779314 0 0 Z " fill="#D0CFCD" transform="translate(221,398)"/>
<path d="M0 0 C-0.80847729 1.16945792 -1.62189112 2.33550461 -2.4375 3.5 C-2.88996094 4.1496875 -3.34242188 4.799375 -3.80859375 5.46875 C-4.20175781 5.9740625 -4.59492187 6.479375 -5 7 C-5.33 7 -5.66 7 -6 7 C-6 4.69 -6 2.38 -6 0 C-2.25 -1.125 -2.25 -1.125 0 0 Z " fill="#20A0E6" transform="translate(697,385)"/>
<path d="M0 0 C-4.33664919 3.11696661 -7.80408388 3.55966813 -13 4 C-10.96180154 1.96180154 -9.70582202 1.32158941 -7.0625 0.3125 C-6.37285156 0.04050781 -5.68320312 -0.23148437 -4.97265625 -0.51171875 C-3 -1 -3 -1 0 0 Z " fill="#051735" transform="translate(404,379)"/>
<path d="M0 0 C0.99 0 1.98 0 3 0 C3 0.99 3 1.98 3 3 C3.66 3 4.32 3 5 3 C5 3.99 5 4.98 5 6 C5.99 6.33 6.98 6.66 8 7 C7.67 7.99 7.34 8.98 7 10 C6.01524786 8.90081184 5.03739527 7.7954398 4.0625 6.6875 C3.51722656 6.07261719 2.97195313 5.45773437 2.41015625 4.82421875 C1 3 1 3 0 0 Z " fill="#021238" transform="translate(608,366)"/>
<path d="M0 0 C1.98 0.66 3.96 1.32 6 2 C6.33 4.97 6.66 7.94 7 11 C4.04250209 7.53258866 1.92151848 4.13126473 0 0 Z " fill="#051A41" transform="translate(694,307)"/>
<path d="M0 0 C1.10493755 3.31481265 1.05432279 5.66131116 0 9 C-0.99 9.66 -1.98 10.32 -3 11 C-2.47731534 8.23723823 -1.89130413 5.6739124 -1 3 C-1.66 2.67 -2.32 2.34 -3 2 C-2.01 1.34 -1.02 0.68 0 0 Z " fill="#1F1B22" transform="translate(775,162)"/>
<path d="M0 0 C0.66 0 1.32 0 2 0 C2.66 2.97 3.32 5.94 4 9 C2.68 8.67 1.36 8.34 0 8 C0 5.36 0 2.72 0 0 Z " fill="#1D2029" transform="translate(496,869)"/>
<path d="M0 0 C0.66 0 1.32 0 2 0 C2.50367757 1.45706726 3.00282556 2.91570096 3.5 4.375 C3.91765625 5.59316406 3.91765625 5.59316406 4.34375 6.8359375 C5 9 5 9 5 11 C4.34 11 3.68 11 3 11 C2.49384702 9.73160474 1.99530901 8.46016898 1.5 7.1875 C1.2215625 6.47980469 0.943125 5.77210938 0.65625 5.04296875 C0 3 0 3 0 0 Z " fill="#EFEEF1" transform="translate(494,858)"/>
<path d="M0 0 C0.33 0 0.66 0 1 0 C1.92017937 7.82152466 1.92017937 7.82152466 -0.3359375 10.7109375 C-2 12.0625 -2 12.0625 -5 14 C-4.70351563 13.44828125 -4.40703125 12.8965625 -4.1015625 12.328125 C-2.92371196 9.83876712 -2.14034283 7.3939116 -1.375 4.75 C-1.11460937 3.85796875 -0.85421875 2.9659375 -0.5859375 2.046875 C-0.39257812 1.37140625 -0.19921875 0.6959375 0 0 Z " fill="#ECF0F0" transform="translate(297,791)"/>
<path d="M0 0 C0.66 0.66 1.32 1.32 2 2 C1.360625 2.86625 0.72125 3.7325 0.0625 4.625 C-1.97548296 7.9598812 -2.63433093 10.16047478 -3 14 C-3.33 14 -3.66 14 -4 14 C-4.43177893 7.73920552 -3.92739438 4.90924297 0 0 Z " fill="#F0F0EF" transform="translate(271,778)"/>
<path d="M0 0 C0.66 0 1.32 0 2 0 C1.49701212 4.40114397 -0.08772731 6.71195019 -3 10 C-3 5.66905042 -2.03435531 3.72965139 0 0 Z " fill="#E9E9E7" transform="translate(609,703)"/>
<path d="M0 0 C0.33 0 0.66 0 1 0 C1.125 5.75 1.125 5.75 0 8 C-0.66 8 -1.32 8 -2 8 C-2.33 9.32 -2.66 10.64 -3 12 C-4.21386936 8.35839192 -3.6674695 7.66834531 -2.0625 4.3125 C-1.49208984 3.10013672 -1.49208984 3.10013672 -0.91015625 1.86328125 C-0.60980469 1.24839844 -0.30945313 0.63351562 0 0 Z " fill="#D2D4D7" transform="translate(795,626)"/>
<path d="M0 0 C1.32 0.33 2.64 0.66 4 1 C4 1.66 4 2.32 4 3 C3.34 3 2.68 3 2 3 C2 4.98 2 6.96 2 9 C1.34 8.67 0.68 8.34 0 8 C0 5.36 0 2.72 0 0 Z " fill="#21161A" transform="translate(392,596)"/>
<path d="M0 0 C0.33 0 0.66 0 1 0 C1.36504603 1.58086048 1.71660506 3.16483907 2.0625 4.75 C2.25972656 5.63171875 2.45695313 6.5134375 2.66015625 7.421875 C2.99825872 9.98679028 2.81158635 11.57091639 2 14 C-0.28062828 10.57905758 -0.21925007 9.31812778 -0.125 5.3125 C-0.10695313 4.31863281 -0.08890625 3.32476562 -0.0703125 2.30078125 C-0.04710937 1.54152344 -0.02390625 0.78226562 0 0 Z " fill="#2D2E32" transform="translate(808,457)"/>
<path d="M0 0 C1.60495567 0.11442461 3.20898119 0.24194694 4.8125 0.375 C5.70582031 0.44460938 6.59914063 0.51421875 7.51953125 0.5859375 C10 1 10 1 13 3 C8.02398374 4.71050559 4.57383705 3.00885647 0 1 C0 0.67 0 0.34 0 0 Z " fill="#237BB9" transform="translate(614,410)"/>
<path d="M0 0 C0.33 0 0.66 0 1 0 C1.36504603 1.58086048 1.71660506 3.16483907 2.0625 4.75 C2.25972656 5.63171875 2.45695312 6.5134375 2.66015625 7.421875 C2.99825872 9.98679028 2.81158635 11.57091639 2 14 C2 13.34 2 12.68 2 12 C1.34 12 0.68 12 0 12 C0 8.04 0 4.08 0 0 Z " fill="#032049" transform="translate(315,356)"/>
<path d="M0 0 C-3.75 3 -3.75 3 -6 3 C-6 3.66 -6 4.32 -6 5 C-7.32 4.67 -8.64 4.34 -10 4 C-7.39928297 0.98864344 -3.94054294 -1.97027147 0 0 Z " fill="#051F3B" transform="translate(371,314)"/>
<path d="M0 0 C0.33 0.66 0.66 1.32 1 2 C-0.59617578 5.83082186 -1.49984971 7.66656647 -5 10 C-4.49701212 5.59885603 -2.91227269 3.28804981 0 0 Z " fill="#212222" transform="translate(727,534)"/>
<path d="M0 0 C1.3303125 0.37125 1.3303125 0.37125 2.6875 0.75 C0.28986815 3.14763185 -0.64523498 3.09280586 -3.9375 3.375 C-4.75476563 3.44976562 -5.57203125 3.52453125 -6.4140625 3.6015625 C-7.04054688 3.65054687 -7.66703125 3.69953125 -8.3125 3.75 C-4.12788462 -0.31153846 -4.12788462 -0.31153846 0 0 Z " fill="#E8ECE5" transform="translate(424.3125,464.25)"/>
<path d="M0 0 C5.875 3.75 5.875 3.75 7 6 C6.401875 5.814375 5.80375 5.62875 5.1875 5.4375 C2.83591238 4.77906313 2.83591238 4.77906313 0 6 C0 4.02 0 2.04 0 0 Z " fill="#0A0A0D" transform="translate(573,451)"/>
<path d="M0 0 C0.66 0 1.32 0 2 0 C4 3 4 3 4 6 C2.68 6.33 1.36 6.66 0 7 C0 4.69 0 2.38 0 0 Z " fill="#0E0D12" transform="translate(218,442)"/>
<path d="M0 0 C3 2 3 2 3.51171875 4.3828125 C3.56972656 5.28773438 3.62773438 6.19265625 3.6875 7.125 C3.75324219 8.03507812 3.81898438 8.94515625 3.88671875 9.8828125 C3.92410156 10.58148438 3.96148438 11.28015625 4 12 C2.09681116 9.14521674 1.5380901 7.58058692 0.875 4.3125 C0.70742188 3.50425781 0.53984375 2.69601562 0.3671875 1.86328125 C0.24601563 1.24839844 0.12484375 0.63351562 0 0 Z " fill="#01163C" transform="translate(604,354)"/>
<path d="M0 0 C0.66 0.66 1.32 1.32 2 2 C0.35 3.65 -1.3 5.3 -3 7 C-3.99 6.67 -4.98 6.34 -6 6 C-4.13216429 3.19824644 -2.69725519 1.88807863 0 0 Z " fill="#E9EDE8" transform="translate(387,315)"/>
<path d="M0 0 C-3.45214853 2.30143236 -4.23479324 2.13833854 -8.1875 1.625 C-9.53908203 1.45871094 -9.53908203 1.45871094 -10.91796875 1.2890625 C-11.60503906 1.19367187 -12.29210937 1.09828125 -13 1 C-13 0.67 -13 0.34 -13 0 C-11.58456585 -0.19658808 -10.16755969 -0.38187546 -8.75 -0.5625 C-7.96109375 -0.66691406 -7.1721875 -0.77132812 -6.359375 -0.87890625 C-3.99467126 -1.00027349 -2.2488963 -0.69633257 0 0 Z " fill="#F5F9EB" transform="translate(291,807)"/>
<path d="M0 0 C2.49388574 4.98777148 1.88836125 6.66983248 1 12 C0.34 11.67 -0.32 11.34 -1 11 C-0.67 7.37 -0.34 3.74 0 0 Z " fill="#2B2A30" transform="translate(213,466)"/>
<path d="M0 0 C-1 2 -2 4 -3 6 C-3.99 6 -4.98 6 -6 6 C-6.33 5.01 -6.66 4.02 -7 3 C-3.375 0 -3.375 0 0 0 Z " fill="#24A7F3" transform="translate(611,322)"/>
<path d="M0 0 C5.21979128 -0.1799928 9.07262981 0.02905192 14 2 C14 2.66 14 3.32 14 4 C9.38 3.01 4.76 2.02 0 1 C0 0.67 0 0.34 0 0 Z " fill="#3EA7E5" transform="translate(394,310)"/>
<path d="M0 0 C3.09592835 3.5087188 4.74194623 6.49197399 6 11 C5.01 10.67 4.02 10.34 3 10 C1.25327015 6.5065403 0 3.93154432 0 0 Z " fill="#D5D4D7" transform="translate(497,277)"/>
<path d="M0 0 C2.64 0 5.28 0 8 0 C7.360625 0.28875 6.72125 0.5775 6.0625 0.875 C3.84793921 1.82823451 3.84793921 1.82823451 3 4 C1.68 3.67 0.36 3.34 -1 3 C-0.67 2.01 -0.34 1.02 0 0 Z " fill="#F1E2D6" transform="translate(742,219)"/>
<path d="M0 0 C3.93673644 1.31224548 6.22719294 2.91910327 9 6 C3.50847458 5.38983051 3.50847458 5.38983051 1.125 3.5625 C0 2 0 2 0 0 Z " fill="#E4E4E3" transform="translate(422,839)"/>
<path d="M0 0 C0.33 0 0.66 0 1 0 C0.53199289 4.05606165 0.12046792 7.46588679 -2 11 C-2.66 11 -3.32 11 -4 11 C-2.95902388 7.13351728 -1.96301592 3.50538557 0 0 Z " fill="#E7E8E1" transform="translate(566,778)"/>
<path d="M0 0 C2 1 2 1 2 1 Z M-2 2 C-1.34 2.33 -0.68 2.66 0 3 C-1.29299694 5.88437779 -2.65941363 7.87219421 -5 10 C-5.66 9.67 -6.32 9.34 -7 9 C-6.360625 8.21625 -5.72125 7.4325 -5.0625 6.625 C-3.01857687 4.20460719 -3.01857687 4.20460719 -2 2 Z " fill="#EDECE8" transform="translate(751,501)"/>
<path d="M0 0 C0.99 0.33 1.98 0.66 3 1 C2.6875 2.875 2.6875 2.875 2 5 C1.01 5.66 0.02 6.32 -1 7 C-1.625 5.1875 -1.625 5.1875 -2 3 C-1.34 2.01 -0.68 1.02 0 0 Z " fill="#21AAF4" transform="translate(352,319)"/>
<path d="M0 0 C2.04296875 0.4609375 2.04296875 0.4609375 4.1875 1.375 C4.90292969 1.67148437 5.61835937 1.96796875 6.35546875 2.2734375 C7.16951172 2.63308594 7.16951172 2.63308594 8 3 C8 3.66 8 4.32 8 5 C4.37 4.01 0.74 3.02 -3 2 C-2.01 1.34 -1.02 0.68 0 0 Z " fill="#CECECE" transform="translate(667,257)"/>
<path d="M0 0 C1.22589844 0.15275391 1.22589844 0.15275391 2.4765625 0.30859375 C3.41628906 0.43427734 3.41628906 0.43427734 4.375 0.5625 C4.375 0.8925 4.375 1.2225 4.375 1.5625 C0.745 1.8925 -2.885 2.2225 -6.625 2.5625 C-6.625 1.9025 -6.625 1.2425 -6.625 0.5625 C-4.10446405 -0.69776798 -2.7707902 -0.35624445 0 0 Z " fill="#D0D2D0" transform="translate(624.625,255.4375)"/>
<path d="M0 0 C2.31 0.33 4.62 0.66 7 1 C6.67 1.66 6.34 2.32 6 3 C3.4375 3.625 3.4375 3.625 1 4 C0.67 2.68 0.34 1.36 0 0 Z " fill="#0E0D12" transform="translate(276,188)"/>
<path d="M0 0 C0.99 0.33 1.98 0.66 3 1 C1.25 3.0625 1.25 3.0625 -1 5 C-3.25 4.75 -3.25 4.75 -5 4 C-2.6875 1.9375 -2.6875 1.9375 0 0 Z " fill="#E5E6E5" transform="translate(645,807)"/>
<path d="M0 0 C0.33 0.66 0.66 1.32 1 2 C1.94875 1.67 2.8975 1.34 3.875 1 C7 0 7 0 9 0 C9 0.66 9 1.32 9 2 C5.78548731 3.60725635 2.56387464 3.05748185 -1 3 C-0.67 2.01 -0.34 1.02 0 0 Z " fill="#EEF0EF" transform="translate(404,592)"/>
<path d="M0 0 C0.66 0 1.32 0 2 0 C2 1.32 2 2.64 2 4 C1.01 4.66 0.02 5.32 -1 6 C-1.99 5.67 -2.98 5.34 -4 5 C-2.71937515 3.2925002 -1.38232443 1.62626404 0 0 Z " fill="#1E1F1D" transform="translate(689,588)"/>
<path d="M0 0 C0.99 0.33 1.98 0.66 3 1 C2.34 4.3 1.68 7.6 1 11 C0.67 11 0.34 11 0 11 C0 7.37 0 3.74 0 0 Z " fill="#312E2D" transform="translate(373,533)"/>
<path d="M0 0 C0.66 0.33 1.32 0.66 2 1 C0.68 3.31 -0.64 5.62 -2 8 C-2.33 8 -2.66 8 -3 8 C-3 5.69 -3 3.38 -3 1 C-2.01 0.67 -1.02 0.34 0 0 Z " fill="#EDF1F1" transform="translate(518,479)"/>
<path d="M0 0 C-0.75 1.9375 -0.75 1.9375 -2 4 C-4 4.875 -4 4.875 -6 5 C-6.66 4.34 -7.32 3.68 -8 3 C-2.25 0 -2.25 0 0 0 Z " fill="#292B2A" transform="translate(436,462)"/>
<path d="M0 0 C-1 3 -1 3 -2.8125 4.25 C-5.33943414 5.11637742 -6.52221994 4.88492145 -9 4 C-2.25 0 -2.25 0 0 0 Z " fill="#042041" transform="translate(422,404)"/>
<path d="M0 0 C0.33 0.66 0.66 1.32 1 2 C0.01 3.485 0.01 3.485 -1 5 C-4.625 5.6875 -4.625 5.6875 -8 6 C-5.38485683 3.87961365 -2.80362384 1.86908256 0 0 Z " fill="#3895DD" transform="translate(664,376)"/>
<path d="M0 0 C3.93673644 1.31224548 6.22719294 2.91910327 9 6 C8.01 6 7.02 6 6 6 C6 5.34 6 4.68 6 4 C5.071875 3.7834375 5.071875 3.7834375 4.125 3.5625 C2 3 2 3 0 2 C0 1.34 0 0.68 0 0 Z " fill="#3996DD" transform="translate(672,289)"/>
<path d="M0 0 C0.99 0 1.98 0 3 0 C1.25 5.75 1.25 5.75 -1 8 C-0.67 5.36 -0.34 2.72 0 0 Z " fill="#EFEFEE" transform="translate(684,816)"/>
<path d="M0 0 C0.66 0.99 1.32 1.98 2 3 C-2.29 2.67 -6.58 2.34 -11 2 C-11 1.67 -11 1.34 -11 1 C-7.26888555 0.12209072 -3.83204782 -0.34062647 0 0 Z " fill="#F7F9FA" transform="translate(285,776)"/>
<path d="M0 0 C1 4 1 4 -0.4375 6.75 C-1.2109375 7.86375 -1.2109375 7.86375 -2 9 C-2.66 8.67 -3.32 8.34 -4 8 C-2.68 5.36 -1.36 2.72 0 0 Z " fill="#1D1C1F" transform="translate(578,761)"/>
<path d="M0 0 C-1.39332574 3.36720387 -2.9789286 4.9859524 -6 7 C-5.37162381 3.35541809 -4.14650034 0 0 0 Z " fill="#D4D4D3" transform="translate(762,493)"/>
<path d="M0 0 C2.91517292 1.07401108 4.77810176 1.77810176 7 4 C4.69 3.67 2.38 3.34 0 3 C0 2.01 0 1.02 0 0 Z " fill="#E8E8E7" transform="translate(332,465)"/>
<path d="M0 0 C0.33 0 0.66 0 1 0 C1.66 2.64 2.32 5.28 3 8 C2.01 8.66 1.02 9.32 0 10 C-1.2380014 6.42355152 -0.74926071 3.66305234 0 0 Z " fill="#0E0B10" transform="translate(477,436)"/>
<path d="M0 0 C-3.08888522 2.05925681 -3.70935927 2.2390374 -7.1875 2.125 C-9.0746875 2.063125 -9.0746875 2.063125 -11 2 C-7.00042393 -0.06874624 -4.43559483 -1.37656391 0 0 Z " fill="#032440" transform="translate(663,413)"/>
<path d="M0 0 C0.99 0 1.98 0 3 0 C2.25 5.75 2.25 5.75 0 8 C0 5.36 0 2.72 0 0 Z " fill="#ECEDE9" transform="translate(549,316)"/>
<path d="M0 0 C0.66 0 1.32 0 2 0 C0.50902342 3.7952131 -1.75700849 5.61042731 -5 8 C-4.1875 5.5625 -4.1875 5.5625 -3 3 C-2.01 2.67 -1.02 2.34 0 2 C0 1.34 0 0.68 0 0 Z " fill="#ECEDE9" transform="translate(317,280)"/>
<path d="M0 0 C0.99 0 1.98 0 3 0 C2.39816251 2.02045442 1.72693904 4.02111039 1 6 C0.01 6.495 0.01 6.495 -1 7 C-1.04254356 5.00045254 -1.04080783 2.99958364 -1 1 C-0.67 0.67 -0.34 0.34 0 0 Z " fill="#0D0E12" transform="translate(525,273)"/>
<path d="M0 0 C3.14624993 -0.26218749 4.61837017 -0.24754367 7.3125 1.5 C8.1478125 2.2425 8.1478125 2.2425 9 3 C6.03 2.67 3.06 2.34 0 2 C0 1.34 0 0.68 0 0 Z " fill="#E0E6EA" transform="translate(671,173)"/>
<path d="M0 0 C-2.97 1.32 -5.94 2.64 -9 4 C-6.37789678 -1.24420645 -5.61031397 -1.40257849 0 0 Z " fill="#CED1C9" transform="translate(781,160)"/>
<path d="M0 0 C2.31 0.33 4.62 0.66 7 1 C7 1.66 7 2.32 7 3 C7.66 3.33 8.32 3.66 9 4 C3.46153846 3.38461538 3.46153846 3.38461538 1.125 1.4375 C0.75375 0.963125 0.3825 0.48875 0 0 Z " fill="#E8EFF2" transform="translate(243,159)"/>
<path d="M0 0 C2.31 0.66 4.62 1.32 7 2 C7 2.66 7 3.32 7 4 C4.03 3.505 4.03 3.505 1 3 C0.67 2.01 0.34 1.02 0 0 Z " fill="#E8F1F3" transform="translate(230,152)"/>
</svg>
